<svg xmlns="http://www.w3.org/2000/svg" xmlns:xlink="http://www.w3.org/1999/xlink" version="1.1" id="Layer_1" x="0px" y="0px" width="100%" viewBox="0 0 256 256" enable-background="new 0 0 256 256" xml:space="preserve">
<path fill="#ffffff" opacity="1.000000" stroke="none" d=" M1.000000,93.000000   C1.000000,63.166672 1.055832,33.833076 0.914984,4.500424   C0.900653,1.515988 1.517806,0.914383 4.500084,0.918054   C87.499947,1.020212 170.499985,1.020206 253.499832,0.918071   C256.481903,0.914402 257.085632,1.517632 257.081940,4.500038   C256.979767,87.499901 256.979797,170.499939 257.081940,253.499786   C257.085602,256.481720 256.482574,257.085632 253.500000,257.081970   C170.500153,256.979797 87.500114,256.979797 4.500254,257.081909   C1.518452,257.085571 0.910604,256.483215 0.916996,253.499969   C1.031269,200.166824 1.000000,146.833389 1.000000,93.000000  z"/>
<path fill="#424241" opacity="1.000000" stroke="none" d=" M203.218124,32.478165   C199.664612,35.103462 196.051849,36.543556 191.422974,35.887062   C188.094513,31.496149 191.722687,30.330616 194.786285,28.552521   C195.749054,28.060942 196.414291,27.818680 197.325287,27.341869   C198.126556,26.860950 198.657303,26.553223 199.274231,25.866566   C200.383041,24.500843 201.045929,23.217678 201.858704,21.655287   C203.191406,20.057737 203.789169,18.620491 202.728027,16.647583   C202.405396,16.262119 202.265350,16.117439 201.931183,15.743409   C201.490784,15.202461 201.249329,14.887190 200.819000,14.343428   C200.368881,13.813850 200.117294,13.505139 199.667999,12.963150   C199.337234,12.572474 199.208817,12.411291 198.903488,11.990767   C198.625748,11.545913 198.524918,11.360400 198.224487,10.926188   C193.341705,8.713063 189.019058,8.569680 184.910629,12.321025   C182.918289,14.140198 180.554932,15.793901 177.299728,16.099045   C167.864014,15.569268 159.082108,16.625193 151.565933,22.261459   C143.583786,28.247156 137.148041,35.544651 133.509888,45.716087   C145.052490,46.281582 155.816376,48.987049 166.656525,53.024620   C167.206146,53.241421 167.376984,53.393200 167.813110,53.762054   C168.078415,53.979134 168.012024,53.966049 168.029449,53.937042   C168.389618,54.417793 168.846359,54.767906 169.747467,54.917885   C170.213837,54.957859 170.383850,54.990643 170.806427,55.084129   C171.231979,55.283718 171.404984,55.422607 171.834778,55.773201   C172.091553,55.984898 172.577621,56.037613 172.817047,56.086998   C173.232101,56.279137 173.407761,56.421898 173.852936,56.771118   C178.645981,58.878864 182.958755,61.136425 186.850494,64.693054   C187.134766,66.877159 188.911972,67.601700 189.951355,69.288437   C190.367203,70.643265 190.265244,71.618614 189.574280,72.849426   C184.235367,72.832207 183.806747,75.867004 183.994858,79.982803   C184.213806,84.773399 184.416306,89.607933 183.749969,94.757492   C184.124634,97.267715 184.112564,99.412605 183.533630,101.877121   C183.498474,102.862831 183.505478,103.510544 183.869019,104.418427   C185.140228,105.843086 186.924561,106.489410 186.783737,108.905563   C186.312790,110.265259 185.615982,110.904259 184.600098,111.180206   C180.997833,112.158676 173.528885,109.134552 171.434845,105.408966   C175.171082,102.186272 174.990845,98.182198 174.890686,94.183701   C174.845108,92.363953 174.840759,90.539032 175.122498,88.336067   C174.742905,82.524963 174.936020,77.088760 174.847397,71.658020   C174.812851,69.541481 175.067734,67.313118 173.038452,65.370300   C171.313324,63.296997 170.414261,60.665047 166.925690,61.285515   C164.201447,61.249344 162.266647,60.031540 160.032013,58.698288   C159.211838,58.224895 158.695206,57.873581 157.834229,57.525711   C157.357864,57.356930 157.168335,57.287109 156.700195,57.100906   C155.724548,56.632843 155.059219,56.188530 153.923508,56.207611   C153.417450,56.154301 153.214478,56.125820 152.707962,56.044647   C151.791290,55.882011 151.178284,55.771179 150.219299,55.774628   C147.777328,55.721439 145.744034,55.263428 143.415894,54.497398   C141.843521,53.715771 140.576721,53.251869 138.789795,53.941906   C132.312057,54.230137 126.214195,54.207470 119.723335,54.007027   C117.725937,53.576832 116.118484,52.728188 114.195633,54.172726   C112.267197,54.977119 110.548164,54.922482 108.537018,55.233273   C107.289330,55.360249 106.419304,55.531010 105.396858,56.318008   C100.522545,58.732742 95.661644,60.186317 90.494438,61.796024   C89.135864,62.088814 87.995300,61.794460 86.849869,62.758652   C86.421631,63.054455 86.246048,63.165424 85.805191,63.429512   C84.574295,64.025925 83.993629,64.780762 83.633499,66.141006   C82.517998,73.261612 83.795586,80.134766 82.673248,87.336655   C82.566490,88.620346 82.719231,89.491768 82.382904,90.769707   C80.307961,93.024834 80.783478,97.385323 76.067535,96.539474   C75.475632,96.135338 75.278336,95.924026 74.892075,95.328331   C72.915001,88.234566 74.378708,81.368889 73.643250,74.312668   C73.455132,73.869843 73.349281,73.719299 72.995743,73.470688   C71.172440,73.542267 70.134727,74.705383 68.620682,75.664383   C67.691010,76.348785 67.035431,76.851364 66.441101,77.861084   C62.825916,82.915825 58.385166,86.821236 54.417526,91.571526   C53.602997,92.357239 53.005627,92.907234 52.560532,93.962860   C51.786549,95.872284 50.889999,97.323441 49.273712,98.623901   C48.942673,98.992798 48.823868,99.150986 48.565365,99.574692   C48.085495,100.617577 47.765877,101.404510 47.159321,102.431641   C46.335594,103.394478 45.584152,103.972267 44.933243,105.121429   C44.485546,105.551537 44.281902,105.700813 43.726315,106.002861   C41.718102,106.515961 40.266811,106.266205 39.131355,104.388947   C39.596275,99.838676 42.834702,97.019455 44.695572,93.150269   C45.678528,92.927887 46.235222,92.601013 46.782593,91.743713   C49.586704,83.445793 55.898819,78.270683 61.719467,72.311630   C62.167068,71.870026 62.401169,71.655434 62.785976,71.252045   C64.567200,69.590988 66.169281,68.087700 67.919167,66.288635   C68.249100,65.866516 68.431229,65.740158 68.906479,65.770767   C70.942764,64.712425 72.685921,63.497112 74.731445,62.168800   C76.221207,62.068291 77.131020,61.628929 77.793472,60.214508   C85.198723,55.433598 92.835861,51.898964 101.568825,49.989006   C102.703079,49.342457 103.660789,50.063755 104.699814,49.410294   C109.761314,46.897827 115.019798,46.097855 120.138519,46.197361   C124.752098,46.287048 127.524414,45.022785 128.978607,40.310295   C129.719345,39.287468 130.393173,38.651917 130.298050,37.342316   C137.022720,24.168123 147.084885,15.177906 161.140274,10.773375   C163.423996,10.057721 165.716522,9.966105 167.983139,9.671782   C174.733047,8.795299 181.213959,8.446806 187.494827,4.380447   C193.181885,0.698539 199.703903,3.010702 204.595245,8.099362   C210.130920,13.858345 210.145050,20.481306 207.334595,27.757868   C205.072098,28.760229 204.137421,30.400766 203.218124,32.478165  z"/>
<path fill="#3c3b38" opacity="1.000000" stroke="none" d=" M101.521439,251.715668   C84.555367,251.104889 68.005585,251.037552 51.515682,249.247940   C44.120922,248.445404 36.691212,248.119949 29.460344,246.225037   C27.772856,245.782806 25.238649,245.706985 25.427309,243.417557   C25.600538,241.315353 27.983582,241.280228 29.805262,240.985901   C33.553188,240.380417 37.281525,239.653687 41.428894,238.969574   C43.312866,237.149460 45.514484,237.221130 47.369587,237.411972   C59.791588,238.689789 72.238625,237.634644 84.665230,238.015793   C85.498238,238.041351 86.321335,238.117462 87.565277,238.423492   C90.968178,238.793289 93.295280,240.146591 95.290047,242.383972   C97.955299,245.373398 101.395515,246.863678 105.453072,246.857651   C121.103569,246.834412 136.754700,246.783051 152.404236,246.896164   C156.685287,246.927109 160.196594,245.850769 163.049011,242.555466   C164.960312,240.347366 167.438492,238.994415 170.470245,238.963364   C184.920273,238.815369 199.375153,238.941772 213.814560,238.185211   C214.313293,238.159073 214.771667,238.443619 215.654114,238.775696   C220.801361,239.706711 225.537903,240.436188 230.241119,241.339294   C231.288284,241.540390 232.656555,241.948822 232.734726,243.405975   C232.814102,244.885635 231.480423,245.295074 230.445969,245.678513   C224.957047,247.713043 219.122925,248.364960 213.404205,248.833862   C200.028503,249.930557 186.650467,251.049576 173.190414,251.182861   C166.769058,251.246460 160.322906,252.262741 153.372787,251.911346   C141.094864,251.047272 129.273682,251.682358 117.460434,251.516373   C112.295906,251.443802 107.128387,251.438522 101.521439,251.715668  z"/>
<path fill="#434746" opacity="1.000000" stroke="none" d=" M188.806152,73.660660   C188.929916,72.147942 188.964111,71.003555 189.246918,69.184555   C190.181534,68.197441 190.852402,68.339790 191.812683,68.766815   C199.699402,73.168274 204.693787,80.165298 209.479355,86.878113   C217.874374,98.653976 223.729370,111.828033 226.491837,126.191040   C226.522827,126.352135 226.666809,126.510109 226.651749,126.658783   C225.590958,137.135040 232.833023,141.342300 240.671616,144.845856   C245.372437,146.946960 247.269684,149.961624 247.098679,155.260956   C246.718216,167.051804 246.980484,178.863403 246.980270,190.666534   C246.980148,197.820267 244.933105,200.534424 237.362671,202.955414   C236.371948,202.925064 235.847763,203.131363 235.210983,203.794556   C228.775345,206.694336 226.508072,211.100204 227.838058,217.975723   C228.738770,222.631943 226.551498,226.940552 223.313385,230.851837   C221.421509,230.996628 219.778900,231.673080 217.972504,230.491852   C216.275436,227.809677 218.023636,225.870544 218.914764,223.473358   C219.490891,222.488693 219.863220,221.761200 220.387299,220.803650   C220.557281,220.381729 220.609497,220.209274 220.717072,219.780457   C220.812332,218.954666 220.694138,218.411499 220.386780,217.552734   C219.800720,215.093750 219.907272,212.994659 220.791138,210.530762   C223.203018,203.150421 224.165634,195.845001 223.292892,188.715042   C222.076630,178.778564 222.823502,168.899063 222.682220,158.554840   C224.275726,155.502930 224.553406,152.658890 224.547897,149.702118   C224.544174,147.700104 224.076797,145.311981 227.337067,144.653473   C230.034317,146.696533 230.125626,149.331909 230.127975,152.038208   C230.139236,164.981140 230.080597,177.924377 230.180756,190.866608   C230.194824,192.682678 229.186935,195.714798 231.585297,195.999588   C234.321075,196.324417 236.966293,194.514572 238.297699,191.740555   C239.025528,190.224121 238.842880,188.484909 238.849228,186.829315   C238.884232,177.702972 238.706421,168.572510 238.928833,159.451813   C239.039246,154.923538 237.667831,151.776260 233.333267,150.039642   C231.643356,149.362579 230.177368,148.210114 229.023773,146.228271   C226.735443,144.579773 226.366608,141.658173 223.570129,140.561569   C222.728348,140.319550 222.276123,140.110489 221.579010,139.566406   C219.674973,136.862259 219.581741,133.977737 219.102875,131.237549   C215.734253,111.962044 207.816513,95.025192 193.753448,81.160255   C191.674026,79.110146 189.076492,77.333183 188.806152,73.660660  z"/>
<path fill="#41413E" opacity="1.000000" stroke="none" d=" M216.213974,238.618942   C210.596695,242.281296 204.446594,240.306030 198.659012,240.799194   C189.730896,241.559982 180.688904,241.087921 171.698029,240.951904   C168.601837,240.905060 166.238144,241.754868 164.382523,244.296356   C161.731018,247.927887 158.172058,249.170303 153.579727,249.096649   C138.095886,248.848328 122.605438,248.962219 107.117844,249.022339   C101.364227,249.044678 96.115318,248.104324 92.823051,242.716980   C91.805504,241.051910 89.934250,241.245041 88.263641,240.220276   C87.235611,239.170517 86.739441,238.244064 86.952850,236.686401   C87.893616,234.659149 89.230080,234.112213 91.354897,234.593658   C93.394135,235.046021 94.229134,236.641418 95.951691,237.512054   C96.845535,237.901764 97.395706,238.253708 98.326172,238.576675   C99.919899,239.208481 100.981415,240.064621 102.270950,241.131363   C102.828522,241.569382 103.160088,241.794022 103.768417,242.127045   C104.641716,242.457550 105.269630,242.505600 106.275932,242.506516   C120.355110,242.495575 134.062317,242.516373 147.769455,242.490204   C150.392654,242.485184 153.088425,242.765854 155.756439,240.899841   C156.886902,239.532272 157.971909,238.755188 159.489380,237.926971   C161.549042,237.354645 162.968842,236.586548 163.587555,234.368027   C163.936203,233.543274 164.259659,233.146561 165.035767,232.662659   C165.679825,232.519089 165.950760,232.526886 166.598114,232.693390   C168.426178,234.197556 170.302780,234.410797 172.093872,234.430771   C182.389984,234.545624 192.687454,234.557571 202.984131,234.436386   C204.320114,234.420670 205.628098,234.176208 207.171906,233.351410   C207.732193,233.023666 207.960739,232.906418 208.536102,232.638397   C209.559769,232.218063 210.259705,232.009262 211.243668,231.552429   C212.871918,230.841675 214.171997,230.255692 215.981598,230.220825   C218.186417,231.265076 220.720108,231.048889 221.960327,233.693024   C220.859100,236.378067 217.869324,236.367508 216.213974,238.618942  z"/>
<path fill="#484847" opacity="1.000000" stroke="none" d=" M87.671906,235.587799   C87.996498,237.014725 87.997475,238.097626 87.998917,239.586304   C76.236641,240.314972 64.467705,239.515610 52.696114,240.409027   C49.376839,240.660950 45.955418,239.566986 42.210358,239.026306   C40.070404,236.162079 37.026310,234.696564 34.961147,232.071793   C29.453716,225.071976 29.913170,217.031738 29.966389,208.503052   C29.369768,205.003036 29.906334,202.692062 33.994938,202.665375   C36.259956,205.208435 35.264584,207.983017 35.480106,210.572998   C35.685444,213.040604 35.129498,215.588486 36.555168,218.238892   C39.637665,225.139023 43.199635,231.065140 51.049084,233.399933   C52.505699,234.129669 53.695614,234.450333 55.368706,234.415588   C56.325775,234.417664 56.882172,234.441162 57.881824,234.480087   C66.229141,234.518906 74.133026,234.473358 82.036659,234.516586   C83.829346,234.526382 85.677757,234.278687 87.671906,235.587799  z"/>
<path fill="#43443C" opacity="1.000000" stroke="none" d=" M13.789124,147.328491   C16.122566,145.813126 18.249001,144.543198 20.693451,143.154236   C24.336767,143.408218 26.294611,144.534821 23.546227,148.352051   C23.095509,148.734024 22.906994,148.874466 22.405594,149.168213   C20.192415,149.671509 18.700949,150.410538 18.844212,153.099335   C18.802931,153.745560 18.776857,154.011978 18.688864,154.691193   C16.586571,162.719528 17.854855,170.496674 17.495829,178.194382   C17.274248,182.945221 18.026546,187.730240 16.730846,192.854919   C15.039184,194.450012 13.510307,194.528931 11.529526,193.336197   C11.129847,179.641891 11.097543,166.280792 11.121746,152.453308   C12.543632,150.823212 13.186788,149.266083 13.789124,147.328491  z"/>
<path fill="#424241" opacity="1.000000" stroke="none" d=" M26.412701,140.884979   C32.378193,134.909607 30.342741,126.741386 32.941143,120.045807   C34.550087,115.899857 35.399208,111.458305 37.653679,107.197922   C39.454079,105.720100 41.005344,106.371803 42.876022,107.153061   C44.681435,109.405479 43.948006,111.379494 42.950294,113.675308   C42.463287,114.587585 42.060673,115.130318 41.604736,115.996399   C41.395245,116.455658 41.312572,116.636856 41.105293,117.083496   C40.743725,117.862297 40.429195,118.340149 40.192596,119.157097   C39.934315,119.944771 39.712128,120.450508 39.514359,121.254868   C39.409142,121.904091 39.367596,122.282410 39.336166,122.968849   C39.290966,124.600449 38.954311,125.851097 38.221733,127.340836   C36.316380,129.359299 36.608131,131.264557 37.665913,133.592133   C38.147087,135.599365 37.799332,137.177856 37.189026,139.143097   C35.067936,142.456940 35.596848,145.779663 35.490673,149.003815   C35.426983,150.937805 35.752995,152.918884 34.583252,155.114197   C33.244095,156.245407 32.076698,156.364822 30.427034,155.875977   C27.525642,153.112778 28.851192,149.648636 27.801228,146.315338   C26.968182,144.455597 26.430620,142.941467 26.412701,140.884979  z"/>
<path fill="#4c403a" opacity="1.000000" stroke="none" d=" M196.625092,29.496876   C195.096237,31.771658 190.339752,30.448534 191.002792,35.459648   C182.026718,36.291199 175.842728,27.898693 176.965576,16.445421   C182.389404,11.342772 187.792633,6.593315 195.882523,7.959478   C197.569290,8.244325 199.209671,8.286844 199.879425,10.653034   C198.351089,12.582386 196.580887,11.713888 194.823654,11.458076   C189.591248,10.696364 185.348816,13.515770 184.473358,18.270147   C183.673904,22.611801 186.815735,26.793171 191.758972,27.834242   C193.359131,28.171249 195.061996,28.089272 196.625092,29.496876  z"/>
<path fill="#434440" opacity="1.000000" stroke="none" d=" M11.114239,193.398239   C12.501810,193.001373 13.841471,192.999756 15.584641,192.997238   C16.446228,192.942444 16.904863,192.934433 17.694510,193.070190   C20.744568,194.633438 23.429926,196.166519 26.367535,197.909119   C27.172655,198.419006 27.638258,198.853836 28.506607,199.234314   C29.243088,199.399673 29.677879,199.453110 30.461926,199.502686   C31.288664,199.535736 31.766237,199.579697 32.607079,199.745483   C33.968822,200.381226 34.583210,201.134277 34.195198,202.675110   C31.415300,203.439484 31.498392,205.956970 30.170006,207.795807   C29.931763,208.040329 29.477388,208.018509 29.250023,208.012329   C28.895430,208.221786 28.768206,208.437424 28.440651,208.335403   C24.480354,204.481735 19.662298,202.663177 15.316257,200.080933   C12.879267,198.632980 10.259407,197.395905 11.114239,193.398239  z"/>
<path fill="#474739" opacity="1.000000" stroke="none" d=" M101.540237,251.921967   C101.682030,251.623184 102.283844,251.135239 102.885681,251.135223   C119.335144,251.134796 135.788956,250.513779 152.566986,251.643768   C135.934189,251.897095 118.967224,251.928650 101.540237,251.921967  z"/>
<path fill="#7D7D7D" opacity="1.000000" stroke="none" d=" M10.011490,165.006149   C10.011492,174.054291 10.011492,182.603897 10.011492,191.153519   C9.670502,191.150848 9.329511,191.148178 8.988521,191.145508   C8.988521,189.518753 8.988521,187.891998 8.988521,186.265244   C8.988521,174.306030 8.988521,162.346817 8.988521,150.387604   C9.329510,150.386597 9.670499,150.385605 10.011488,150.384598   C10.011488,155.092270 10.011488,159.799957 10.011490,165.006149  z"/>
<path fill="#434746" opacity="1.000000" stroke="none" d=" M26.065002,140.505951   C27.711157,141.322784 28.880867,142.268494 28.982540,144.370987   C28.987850,145.230820 28.925768,145.722137 28.660194,146.546341   C27.089220,148.541901 25.393692,149.439377 22.825058,148.726837   C24.187017,146.307678 23.446896,144.732025 21.076038,143.309250   C22.320543,141.696823 24.037725,141.127106 26.065002,140.505951  z"/>
<path fill="#4A4A49" opacity="1.000000" stroke="none" d=" M222.333633,233.817749   C219.782471,234.258621 218.497009,232.194092 216.298981,231.386948   C215.465958,230.286804 216.047470,229.925781 217.128845,229.698700   C219.213959,230.357162 221.279495,227.954788 222.909180,230.698303   C222.871506,231.889069 222.726776,232.746292 222.333633,233.817749  z"/>
<path fill="#434746" opacity="1.000000" stroke="none" d=" M43.449429,108.026459   C41.600365,107.713661 40.136482,107.409332 38.301788,107.040268   C38.139954,106.139351 38.348930,105.303162 38.792351,104.239822   C40.525574,104.401459 42.024349,104.790237 43.909897,105.247269   C44.860985,106.344040 44.809731,107.267967 43.449429,108.026459  z"/>
<path fill="#434746" opacity="1.000000" stroke="none" d=" M13.681381,147.209015   C14.471158,149.230682 15.572256,151.653320 11.516285,151.973068   C10.673516,149.855682 11.791135,148.487640 13.681381,147.209015  z"/>
<path fill="#4c403a" opacity="1.000000" stroke="none" d=" M203.303955,32.620403   C203.002716,30.395773 202.683899,27.852732 206.660645,28.019276   C206.053589,29.634399 205.509460,31.599909 203.303955,32.620403  z"/>
<path fill="#434746" opacity="1.000000" stroke="none" d=" M188.999695,69.000153   C187.089951,68.573166 185.581299,67.873787 186.810547,65.222229   C187.197617,65.016617 187.369186,65.049683 187.796051,65.141945   C188.219986,65.318832 188.388626,65.436523 188.767212,65.780182   C188.977188,66.006134 189.004929,66.002853 188.995773,66.013855   C189.577118,66.698921 189.737015,67.463799 189.235489,68.659164   C189.000610,68.999695 189.000000,69.000000 188.999695,69.000153  z"/>
<path fill="#434746" opacity="1.000000" stroke="none" d=" M77.706085,60.078522   C77.815094,61.428368 78.035904,63.288227 75.276993,62.255444   C75.832024,61.438969 76.630234,60.822136 77.706085,60.078522  z"/>
<path fill="#424241" opacity="1.000000" stroke="none" d=" M189.388367,68.998901   C188.997482,68.255829 188.994339,67.511963 188.988907,66.396477   C190.659653,65.926895 191.063095,67.349037 191.951965,68.664902   C191.328873,68.970230 190.552490,68.984169 189.388367,68.998901  z"/>
<path fill="#434746" opacity="1.000000" stroke="none" d=" M130.041229,37.308945   C132.627151,38.377411 131.402954,39.159325 129.449341,39.928047   C129.403152,39.187019 129.649353,38.390915 130.041229,37.308945  z"/>
<path fill="#4A4A49" opacity="1.000000" stroke="none" d=" M235.287720,203.946625   C235.145386,203.178543 234.787064,202.113419 235.909714,201.757004   C236.129761,201.687119 236.532928,202.194061 236.923767,202.705521   C236.521881,203.281128 236.047836,203.586182 235.287720,203.946625  z"/>
<path fill="#434746" opacity="1.000000" stroke="none" d=" M104.646454,49.180634   C104.625046,50.784531 103.664917,50.769886 102.226898,50.093506   C102.549026,49.144543 103.411217,49.071796 104.646454,49.180634  z"/>
<path fill="#434746" opacity="1.000000" stroke="none" d=" M46.583660,91.531586   C46.719433,92.304916 47.063560,93.582222 45.185711,93.113388   C45.403091,92.502831 45.845875,92.071701 46.583660,91.531586  z"/>
<path fill="#434746" opacity="1.000000" stroke="none" d=" M169.877289,54.682335   C169.164047,55.750820 168.513245,55.638580 168.085251,54.182201   C168.601517,54.085224 169.156143,54.262413 169.877289,54.682335  z"/>
<path fill="#484847" opacity="1.000000" stroke="none" d=" M28.163597,208.278015   C28.240322,208.017746 28.631430,208.015106 28.827042,208.010635   C28.927568,208.503601 29.171276,209.178162 28.387980,209.299667   C28.328417,209.308914 28.189110,208.804138 28.163597,208.278015  z"/>
<path fill="#424241" opacity="1.000000" stroke="none" d=" M188.891342,65.801224   C188.727432,65.882202 188.505432,65.720222 188.181274,65.360672   C188.378723,65.187851 188.630096,65.319572 188.891342,65.801224  z"/>
<path fill="#434746" opacity="1.000000" stroke="none" d=" M62.710678,71.145439   C62.796062,71.372292 62.579483,71.606346 62.109955,71.925018   C62.088432,71.767929 62.272331,71.482262 62.710678,71.145439  z"/>
<path fill="#434746" opacity="1.000000" stroke="none" d=" M167.986328,53.746471   C167.789749,53.855709 167.535645,53.681797 167.175705,53.273514   C167.405273,53.061573 167.691574,53.202965 167.986328,53.746471  z"/>
<path fill="#434746" opacity="1.000000" stroke="none" d=" M69.072006,65.743637   C69.010925,65.940880 68.822235,65.954033 68.350258,65.980026   C68.179115,65.483276 68.370255,65.133636 69.072006,65.743637  z"/>
<path fill="#434746" opacity="1.000000" stroke="none" d=" M174.000687,56.770760   C173.832123,56.865814 173.574112,56.702862 173.202454,56.312553   C173.403976,56.137699 173.678116,56.280220 174.000687,56.770760  z"/>
<path fill="#434746" opacity="1.000000" stroke="none" d=" M171.978790,55.776901   C171.810455,55.868221 171.560623,55.703983 171.200531,55.318512   C171.403442,55.142506 171.672455,55.283867 171.978790,55.776901  z"/>
<path fill="#DAECF4" opacity="1.000000" stroke="none" d=" M217.653000,229.456879   C217.079330,230.084396 216.672409,230.403732 216.148346,230.957581   C215.020111,231.814011 214.009003,232.435928 212.702164,233.102097   C211.756546,233.314484 211.107941,233.487473 210.270752,233.938568   C210.082001,234.216064 210.102859,234.129623 210.143982,234.146515   C199.946732,235.413300 189.683884,234.239456 179.431412,234.439255   C166.506775,234.691116 166.634659,234.498077 166.455521,221.657394   C166.333130,212.884308 167.274948,204.077698 165.624634,194.934799   C165.159714,194.044952 164.923737,193.535385 164.669220,192.616348   C164.602448,189.978912 164.239044,187.885330 161.850891,186.321381   C159.674240,183.732315 156.846710,182.700333 154.117294,180.847366   C152.370285,179.601273 150.710526,179.524490 149.054565,179.519943   C136.499268,179.485397 123.943924,179.482178 111.388634,179.520874   C109.898384,179.525467 108.411743,179.618225 106.712616,180.559982   C104.028526,182.430939 100.864494,181.697403 98.561554,183.505417   C95.756996,185.707230 94.123482,188.667572 92.745338,192.313629   C91.344437,195.004288 91.511078,197.525284 91.505470,200.012253   C91.483727,209.657654 91.550934,219.303436 91.473709,228.948425   C91.431221,234.254990 90.744995,234.906281 85.355316,234.985062   C76.211426,235.118729 67.064697,234.821976 57.469673,235.250137   C56.558487,235.442169 56.099022,235.521393 55.305351,235.480957   C53.898308,234.967499 52.777695,235.007660 51.327930,234.994019   C42.593731,233.778824 38.211258,228.368896 35.878456,220.319763   C34.605282,217.961685 35.087902,215.759216 35.008472,213.630600   C34.175125,191.296768 34.275562,168.962311 35.008423,146.193146   C38.883121,130.657730 46.299999,117.509048 56.641312,105.892525   C60.088375,102.020393 63.611237,98.316269 67.991547,95.501343   C70.135353,94.123680 72.282326,92.819695 75.136063,94.681496   C75.477371,95.152519 75.583122,95.316071 75.814751,95.743271   C76.519020,96.582489 76.901878,97.257286 76.977020,98.474075   C75.941711,100.965263 75.323402,103.158363 75.287186,105.892334   C74.689377,107.589211 73.612793,108.304535 72.104172,109.108597   C59.741940,115.801544 54.400665,125.844498 56.575535,139.359756   C58.261120,149.834473 67.753532,159.650925 80.010269,161.411255   C89.805832,162.818130 101.889030,157.351624 106.797539,148.592911   C108.933952,144.780701 110.515610,140.786545 110.949051,136.402313   C111.148499,134.384827 111.407639,132.409912 113.599770,130.920776   C123.660072,130.238556 133.343262,130.542984 143.437073,130.653259   C146.575134,131.659973 146.716141,134.037689 147.061432,136.365738   C149.110260,150.179199 156.855133,158.565262 170.408569,161.329849   C177.260010,162.727371 183.553375,160.746780 189.319153,157.088089   C191.264816,155.853424 193.114868,154.407822 195.099396,152.617599   C196.208389,151.784836 197.116959,151.236115 197.701111,149.939850   C199.256363,146.704483 199.918625,143.375153 202.454926,140.642807   C202.726486,140.022766 203.912247,140.378952 203.058868,139.287720   C201.865845,137.352768 202.069336,135.493988 202.055145,133.330322   C202.058594,132.126495 202.070953,131.258270 201.624313,130.114349   C200.118729,122.321083 195.242188,116.863358 190.596954,110.853439   C189.867615,109.066689 188.643982,108.250931 187.415817,107.421532   C181.970688,103.744308 181.798569,102.367729 186.371277,96.594742   C189.604889,95.290413 192.055862,96.491661 193.986420,98.388321   C205.383423,109.585274 215.158722,121.894684 219.954666,137.490753   C220.250244,138.451920 220.446884,139.427429 220.339188,140.831131   C219.368835,146.931488 221.700165,152.097641 223.000626,157.876740   C222.645050,175.556473 223.939758,192.801178 222.685608,210.496979   C222.436600,213.350052 222.330978,215.744049 222.291656,218.583832   C222.455109,219.210831 222.552277,219.392044 222.461014,219.817383   C222.272583,220.061539 222.094498,219.937103 221.986130,219.944550   C221.250931,220.654419 220.881012,221.481201 220.852997,222.700989   C220.861328,225.527802 219.082245,227.204041 217.653000,229.456879  z"/>
<path fill="#DAECF5" opacity="1.000000" stroke="none" d=" M176.562103,87.645523   C176.882385,92.391907 176.710236,96.822220 177.085403,101.205681   C177.385712,104.714546 175.778946,105.416107 172.443069,105.170380   C171.457382,105.707878 171.041702,106.279953 170.250244,106.965187   C169.287369,107.397682 168.587219,107.455688 167.559601,107.635193   C157.605240,110.409386 152.126785,117.717186 146.948151,125.934875   C146.243393,126.521759 145.792282,126.807304 144.927155,127.217636   C144.250565,127.441811 143.971237,127.514885 143.270660,127.713211   C133.504089,128.158844 124.157356,127.996628 114.373810,127.845390   C113.387901,127.598824 112.864693,127.370781 112.032211,126.855774   C107.555199,121.496933 104.606003,115.382774 98.798813,111.147057   C93.711365,108.699081 88.965164,106.431557 83.518845,106.461372   C81.894623,106.470261 80.676605,105.694229 79.720116,103.868912   C77.917488,99.440819 80.169037,95.689423 80.595276,91.395256   C80.881729,90.234772 80.940872,89.475876 81.076462,88.342697   C86.319092,81.636597 93.924873,79.626091 101.162361,77.690071   C123.360397,71.752098 145.437546,71.845078 166.891647,81.200668   C170.331650,82.700760 174.199753,83.689957 176.562103,87.645523  z"/>
<path fill="#FDFDFD" opacity="1.000000" stroke="none" d=" M176.892822,87.519386   C167.911682,84.380966 159.428253,79.674240 149.827713,77.899559   C126.546356,73.595924 104.248634,75.873550 83.322731,87.631325   C82.910683,87.862846 82.358498,87.844933 81.512299,87.955902   C81.139236,80.254227 80.370308,72.526352 81.816422,64.493843   C82.717651,63.103775 83.822891,62.717709 85.219437,62.215210   C85.563286,62.176624 85.843346,62.228115 85.922470,62.109749   C86.792480,61.118073 87.847488,60.682625 89.240082,60.210102   C94.485008,58.445286 99.389847,56.713421 104.642883,54.823887   C105.782722,54.210751 106.448830,53.525249 107.610847,53.626244   C109.627396,53.604153 111.428696,53.309830 113.612411,52.890614   C114.990685,51.996330 116.152733,51.985462 117.676941,52.055672   C125.034409,51.900997 132.044144,51.481586 139.514282,52.119659   C140.822205,52.024570 141.665741,51.971725 142.732971,52.512741   C145.381912,53.178123 147.756287,53.687263 150.535416,54.187832   C151.513718,54.084167 152.055237,54.154293 152.773895,54.654453   C153.157333,54.901825 153.311996,54.985405 153.729645,55.049831   C154.875809,54.972816 155.691071,55.224865 156.740021,55.772934   C157.127335,56.072853 157.259140,56.176422 157.642273,56.288254   C158.504059,56.137676 159.075760,56.204876 159.795654,56.810150   C162.103378,57.988518 164.208755,58.944756 166.663605,59.928577   C169.259888,59.881836 170.743820,61.461700 172.743500,62.705521   C176.115448,64.385574 177.396881,66.535927 177.101349,70.233376   C176.655716,75.809189 176.973877,81.446045 176.892822,87.519386  z"/>
<path fill="#434746" opacity="1.000000" stroke="none" d=" M99.604218,110.248978   C105.577438,113.459831 108.941086,118.558006 111.549026,124.691299   C112.102081,125.121834 112.391678,125.346970 112.826096,125.829803   C123.050453,126.132530 133.088547,126.229996 143.581787,126.453590   C144.446274,126.670723 144.823593,126.591774 145.339661,126.113205   C145.588806,125.677132 145.671387,125.493294 145.987213,125.117096   C150.197006,115.767899 156.414810,108.997139 166.634689,106.106628   C167.899811,106.915657 168.794037,107.030617 169.772675,105.812592   C170.395279,105.391373 170.929001,105.263985 171.734863,105.200684   C176.086761,108.986000 182.457764,110.471619 185.960800,108.131241   C188.564178,106.645569 190.052353,108.280998 191.696762,110.161438   C197.742096,115.476265 201.898865,121.496201 203.402985,129.606079   C203.726379,130.416428 203.839294,130.870880 203.887512,131.690750   C203.682983,134.357681 203.490234,136.672348 203.332687,139.421051   C203.706161,140.070282 204.044449,140.285416 203.802521,140.658783   C201.612747,143.861984 201.696274,147.666245 198.900421,150.576721   C198.780304,151.694641 198.325500,152.175201 197.467773,152.785843   C185.902008,163.942261 173.542786,166.736832 161.523651,160.645004   C150.218277,154.914948 144.850891,145.420807 145.017609,132.322662   C142.755768,130.399307 140.213135,130.998169 137.806931,131.041656   C129.776230,131.186707 121.729958,130.474548 113.347229,131.676895   C114.430061,152.382935 95.517982,168.022018 75.826111,162.584091   C64.196587,159.372589 55.742599,149.762482 54.564156,137.512634   C53.304348,124.417015 58.912354,114.643494 70.690392,108.152359   C71.817215,108.228981 72.353867,108.689369 72.867905,109.698944   C73.280800,111.722206 72.317352,112.866898 71.090927,114.281029   C70.662994,114.711853 70.472015,114.862305 69.957062,115.172699   C62.520279,118.039948 61.455982,124.809685 59.674713,130.838638   C58.925327,133.375046 59.018375,136.441391 60.326546,139.444214   C60.652531,139.904999 60.785229,140.086945 61.070091,140.567963   C61.521305,141.890472 61.621937,142.994995 62.627918,144.060257   C62.944401,144.487534 63.059055,144.666504 63.320358,145.125336   C63.831406,146.367828 64.296478,147.249664 65.596741,147.859283   C68.734230,150.000702 71.119972,152.606018 74.401337,153.996445   C82.864334,157.582550 90.736542,156.345535 97.706993,150.650314   C104.922607,144.754761 106.050186,136.725983 104.427872,128.061127   C104.186615,126.772568 103.656342,125.526222 103.163254,123.943512   C102.878334,123.036934 102.751198,122.428535 102.390594,121.599617   C102.169525,121.186462 102.078308,121.025269 101.843048,120.631485   C101.501373,120.097115 101.300842,119.797264 100.924393,119.290268   C100.519844,118.796692 100.294930,118.507072 99.894867,117.992798   C99.599724,117.616554 99.484909,117.460930 99.208145,117.056320   C98.950569,116.628899 98.854942,116.450462 98.650421,115.984406   C98.301025,115.107277 98.033157,114.527794 97.833893,113.571762   C97.775734,112.011757 98.166809,110.987770 99.604218,110.248978  z"/>
<path fill="#FBFBFC" opacity="1.000000" stroke="none" d=" M219.010193,141.412125   C215.020004,127.134071 207.534836,115.363129 197.572250,105.099739   C194.617981,102.056274 192.447464,97.979538 187.353790,97.069351   C185.358856,97.251846 183.938004,96.893494 182.747009,95.202866   C182.587265,86.483551 182.587265,78.051315 182.587265,68.720703   C184.739655,70.358833 186.495041,71.694824 188.573074,73.161568   C205.123383,87.779411 216.226776,105.306450 220.488327,126.836281   C221.228958,130.577988 221.554047,134.401947 222.195923,138.605164   C224.148987,141.795273 223.494858,144.804993 222.948639,148.176910   C221.525726,149.775681 220.588776,149.106674 220.283661,147.891266   C219.783752,145.899857 218.901794,143.968430 219.010193,141.412125  z"/>
<path fill="#FBFCFB" opacity="1.000000" stroke="none" d=" M75.494034,94.534286   C69.328568,94.770386 65.549202,99.208969 62.158203,102.798759   C54.011086,111.423500 46.503281,120.774117 41.908001,131.898636   C40.245506,135.923309 38.556339,139.911987 36.282509,143.914505   C34.753365,142.769577 34.999084,141.300156 35.484726,139.419586   C35.860233,137.309219 36.045509,135.602417 36.179726,133.468445   C36.071457,131.202896 35.656239,129.336517 36.834160,127.288376   C37.497681,125.588074 37.882931,124.172279 38.266216,122.385101   C38.074272,121.766052 37.884293,121.518387 38.151306,121.168900   C38.773941,120.561661 38.939575,120.056244 39.077644,119.282677   C39.030304,118.446724 39.149151,117.917519 39.645744,117.222488   C39.890541,116.841866 39.975418,116.687691 40.042992,116.270096   C40.019882,115.443954 40.141113,114.917397 40.624638,114.222443   C41.524052,112.241264 42.267715,110.487274 43.037815,108.375641   C43.452793,107.320511 43.841331,106.623039 44.263268,105.620537   C44.296665,105.315514 44.254921,105.300774 44.276501,105.300446   C44.408024,104.222267 44.924335,103.321175 45.747147,102.230331   C46.534000,101.058388 47.107006,100.116478 47.564133,98.860085   C47.240383,98.309944 47.032505,98.074287 47.195259,98.129852   C49.481377,97.424744 49.770149,95.204681 51.172703,93.427109   C51.237991,92.332321 51.666607,91.836090 52.522362,91.216904   C56.746716,86.493782 60.711269,81.993851 64.819153,77.188606   C65.449654,76.365768 65.769730,75.707573 66.672409,75.144310   C69.127319,73.423424 71.243355,71.812790 73.676987,70.088890   C74.307556,69.668053 74.679306,69.528091 75.340187,69.806023   C75.579849,78.046982 75.598145,86.063286 75.494034,94.534286  z"/>
<path fill="#F36547" opacity="1.000000" stroke="none" d=" M197.006744,29.562197   C188.768372,30.440992 184.332642,28.282940 182.770294,22.813175   C181.530151,18.471413 182.351395,14.547611 185.875488,11.571514   C190.072144,8.027454 194.612213,8.214671 199.578079,10.950205   C199.944748,11.035391 199.972931,11.014887 199.970306,11.023339   C200.231262,11.254293 200.473068,11.498526 200.820587,11.987797   C200.965836,12.501116 201.088959,12.734116 201.499893,12.994129   C202.131409,13.237907 202.494507,13.510983 202.857391,14.233459   C202.940170,14.572502 202.740860,14.749954 202.799881,14.869619   C204.534210,16.817581 203.965591,18.974159 203.563354,21.497726   C202.626282,23.367231 201.875656,24.818125 200.988525,26.591167   C200.533844,27.667585 200.124268,28.341715 199.025574,28.747562   C198.218597,29.002459 197.701233,29.175173 197.006744,29.562197  z"/>
<path fill="#D7E5EA" opacity="1.000000" stroke="none" d=" M182.457703,95.354858   C184.120789,94.968002 185.658035,95.010414 186.831299,96.738464   C186.832336,97.642761 186.830139,98.394417 186.468399,98.875954   C183.517410,102.804108 183.719315,105.515770 189.114380,106.663223   C190.572754,106.973404 191.686142,108.065140 191.797546,110.164230   C190.128326,109.650787 188.455368,108.752762 186.428085,107.812485   C184.833298,107.031868 183.592804,106.293503 182.201202,105.279854   C181.898178,104.834846 181.746277,104.665123 181.826385,104.244576   C182.148285,101.260475 182.238205,98.527206 182.457703,95.354858  z"/>
<path fill="#434746" opacity="1.000000" stroke="none" d=" M80.499222,91.124191   C80.877235,95.027031 80.931885,99.060394 80.906143,103.551575   C79.645500,105.466331 78.164291,105.517853 76.157494,104.662315   C74.735115,103.027542 75.057556,101.461922 75.234711,99.483978   C75.472946,98.276772 75.605751,97.517830 75.839584,96.382904   C79.688614,96.504959 78.295685,92.421318 80.499222,91.124191  z"/>
<path fill="#4c403a" opacity="1.000000" stroke="none" d=" M203.692139,21.779699   C203.223633,19.899456 203.070389,17.882574 202.888016,15.427488   C206.160858,16.703337 205.396072,19.119356 203.692139,21.779699  z"/>
<path fill="#434746" opacity="1.000000" stroke="none" d=" M172.911987,62.612419   C171.169662,62.088753 169.338913,61.246807 167.260635,60.180511   C170.015488,58.087303 171.222870,60.679417 172.911987,62.612419  z"/>
<path fill="#434746" opacity="1.000000" stroke="none" d=" M117.789825,51.852486   C116.911087,52.340187 115.796402,52.604347 114.338272,52.817112   C114.695412,50.865929 115.969673,50.762260 117.789825,51.852486  z"/>
<path fill="#434746" opacity="1.000000" stroke="none" d=" M142.908020,52.395775   C142.181793,52.571491 141.356064,52.473995 140.255020,52.222458   C140.942139,51.067730 141.891037,50.774052 142.908020,52.395775  z"/>
<path fill="#434746" opacity="1.000000" stroke="none" d=" M45.628532,102.110847   C45.570915,102.967751 45.180832,103.935219 44.544418,105.101402   C44.092720,104.099480 43.957039,102.921425 45.628532,102.110847  z"/>
<path fill="#434746" opacity="1.000000" stroke="none" d=" M156.848938,55.722923   C156.165939,55.787571 155.336380,55.605854 154.249725,55.227409   C155.111694,53.867805 155.936142,54.495186 156.848938,55.722923  z"/>
<path fill="#434746" opacity="1.000000" stroke="none" d=" M52.483467,91.009064   C52.436859,91.613235 52.091560,92.232750 51.506546,92.977409   C49.792603,91.623482 50.889145,91.279984 52.483467,91.009064  z"/>
<path fill="#434746" opacity="1.000000" stroke="none" d=" M89.197189,60.151234   C88.614914,60.763222 87.649658,61.349300 86.343002,61.963379   C86.368408,60.509129 87.409599,60.043339 89.197189,60.151234  z"/>
<path fill="#434746" opacity="1.000000" stroke="none" d=" M66.803192,74.857834   C66.511543,75.594894 66.011818,76.155724 65.237289,76.799927   C65.235069,75.947975 64.580078,74.324837 66.803192,74.857834  z"/>
<path fill="#434746" opacity="1.000000" stroke="none" d=" M85.173767,62.153046   C84.620369,62.795189 83.677460,63.413757 82.397369,64.092888   C82.324371,62.612267 83.324196,62.061169 85.173767,62.153046  z"/>
<path fill="#434746" opacity="1.000000" stroke="none" d=" M107.514191,53.727715   C107.080276,54.169117 106.334450,54.439762 105.289856,54.688309   C105.433693,53.709515 106.094254,53.187260 107.514191,53.727715  z"/>
<path fill="#434746" opacity="1.000000" stroke="none" d=" M152.934875,54.564850   C152.449112,54.739307 151.895554,54.660378 151.141068,54.380356   C151.642426,53.349152 152.296890,53.215946 152.934875,54.564850  z"/>
<path fill="#434746" opacity="1.000000" stroke="none" d=" M156.659271,15.274057   C156.722534,14.950510 156.905991,14.755403 157.089432,14.560295   C157.192169,14.670592 157.294891,14.780890 157.397629,14.891186   C157.191574,15.061624 156.985519,15.232060 156.659271,15.274057  z"/>
<path fill="#434746" opacity="1.000000" stroke="none" d=" M159.936798,56.759315   C159.429337,56.931232 158.860657,56.830181 158.092773,56.512825   C158.647430,55.386902 159.325378,55.269749 159.936798,56.759315  z"/>
<path fill="#4c403a" opacity="1.000000" stroke="none" d=" M199.065887,28.810228   C199.270065,28.275822 199.804153,27.721895 200.595139,27.040642   C200.794205,27.870777 200.425507,28.587116 199.065887,28.810228  z"/>
<path fill="#DAECF4" opacity="1.000000" stroke="none" d=" M75.636780,69.763947   C75.212677,70.030182 74.863792,70.029694 74.254753,70.002411   C74.384041,69.159134 74.929924,68.904198 75.636780,69.763947  z"/>
<path fill="#4c403a" opacity="1.000000" stroke="none" d=" M202.803879,14.266109   C202.608841,14.280919 202.277512,13.989340 201.815735,13.386517   C202.012711,13.370089 202.340149,13.664905 202.803879,14.266109  z"/>
<path fill="#4c403a" opacity="1.000000" stroke="none" d=" M200.839417,11.973454   C200.673477,11.990000 200.401764,11.766016 200.048874,11.286913   C200.223007,11.265505 200.478348,11.499215 200.839417,11.973454  z"/>
<path fill="#434746" opacity="1.000000" stroke="none" d=" M181.932861,104.097015   C182.107025,104.162628 182.155670,104.331512 182.127213,104.752487   C181.720932,104.796318 181.640015,104.528221 181.932861,104.097015  z"/>
<path fill="#434746" opacity="1.000000" stroke="none" d=" M47.464203,98.501747   C47.318932,98.359543 47.189602,98.173492 47.060272,97.987442   C47.160904,98.035316 47.261536,98.083199 47.464027,98.276077   C47.565891,98.421074 47.480145,98.457901 47.464203,98.501747  z"/>
<path fill="#AEC0D2" opacity="1.000000" stroke="none" d=" M227.810883,145.282776   C228.069336,144.724594 228.245682,144.735443 228.390823,144.808380   C240.982651,151.134567 240.982285,151.134918 240.981506,165.172958   C240.981079,172.837067 240.724243,180.513138 241.080719,188.160629   C241.284332,192.528427 240.047028,195.057678 235.986237,197.130219   C227.600983,201.409836 227.744141,201.681656 227.740814,192.365036   C227.735260,176.870285 227.723389,161.375534 227.810883,145.282776  z"/>
<path fill="#353736" opacity="1.000000" stroke="none" d=" M221.719421,149.382538   C222.082611,145.987701 222.144501,142.955643 222.263580,139.472992   C222.699524,139.020233 223.078278,139.018082 223.741196,139.007233   C224.991516,140.152390 226.099609,141.455032 225.661621,142.957993   C224.298553,147.635574 225.690475,152.482162 224.317841,157.564484   C224.340057,168.282852 223.573822,178.575409 224.794205,188.905930   C225.642212,196.084061 224.239212,203.372635 222.847015,210.755310   C222.433624,193.277863 222.325027,175.599670 222.118378,157.461792   C220.460236,154.695999 220.906937,152.223328 221.719421,149.382538  z"/>
<path fill="#4A4A49" opacity="1.000000" stroke="none" d=" M224.411346,157.839386   C224.039627,151.965118 224.026733,145.950165 224.019592,139.466873   C226.773209,139.522568 228.039001,141.215164 227.928802,144.330368   C227.907562,144.684753 227.890930,144.908066 227.779785,144.922699   C225.305466,146.117279 226.261993,148.343384 225.979248,150.197861   C225.597610,152.701035 227.051117,155.504929 224.411346,157.839386  z"/>
<path fill="#D7E5EA" opacity="1.000000" stroke="none" d=" M221.221161,222.749725   C220.014114,221.937378 219.831512,220.952576 221.591064,220.044312   C221.728714,220.799377 221.579666,221.646744 221.221161,222.749725  z"/>
<path fill="#353736" opacity="1.000000" stroke="none" d=" M222.444458,220.004883   C222.245621,219.886139 222.218643,219.710754 222.274811,219.282501   C222.757599,219.247650 223.693451,219.314850 222.444458,220.004883  z"/>
<path fill="#C0DBEB" opacity="1.000000" stroke="none" d=" M102.491196,242.823547   C100.381493,242.641296 99.565170,241.316986 98.247406,240.153503   C96.913338,238.754791 95.590073,237.634628 95.609825,235.830505   C95.677628,229.638702 94.891579,223.423477 96.380997,216.857925   C98.613487,214.835220 100.965286,214.851669 103.287025,214.843292   C120.033768,214.782898 136.780960,214.729935 153.527161,214.864685   C160.547592,214.921158 161.498108,215.953171 161.470016,223.068329   C161.453644,227.215317 161.699356,231.347610 161.873978,235.977875   C161.900726,237.140289 161.707977,237.756927 160.926788,238.582504   C159.890427,239.513885 159.267685,240.181564 158.384796,240.938461   C156.233566,242.035675 154.413208,243.045578 152.105057,243.023788   C135.727478,242.869171 119.347603,243.223984 102.491196,242.823547  z"/>
<path fill="#D7E5EA" opacity="1.000000" stroke="none" d=" M166.069397,193.208466   C168.576248,194.168747 167.948395,196.181244 167.958054,197.911514   C168.010666,207.354568 168.275101,216.810516 167.871429,226.236526   C167.645920,231.502869 170.066055,232.997406 174.582169,232.992844   C180.049347,232.987305 185.526810,233.209503 190.981003,232.945084   C197.141541,232.646423 203.170746,233.804718 209.728668,234.117065   C208.029419,235.685120 205.510910,235.720078 203.053909,235.732468   C191.775085,235.789322 180.495819,235.770462 169.216751,235.750916   C167.853302,235.748550 166.005585,236.316483 166.131851,233.396576   C164.853485,231.884521 164.551346,230.456726 164.542877,228.922043   C164.483475,218.164780 164.450272,207.407486 164.563568,196.650375   C164.575928,195.475388 164.776886,194.339996 166.069397,193.208466  z"/>
<path fill="#EAF3F6" opacity="1.000000" stroke="none" d=" M57.471138,235.484619   C58.265388,233.394073 60.266388,234.040390 62.002110,234.026871   C69.633537,233.967407 77.270683,233.836243 84.895500,234.068283   C88.791245,234.186829 90.142822,232.861481 90.067406,228.930725   C89.860588,218.150513 89.969246,207.363571 90.026939,196.579681   C90.036308,194.827087 89.421555,192.891846 91.279205,191.190704   C91.882484,191.116928 92.163322,191.236832 92.759521,191.688354   C93.208664,192.293137 93.342453,192.566299 93.654663,193.258362   C94.094437,198.475052 94.123558,203.273666 93.871246,208.523621   C94.149696,215.935333 93.940582,222.899841 93.990112,229.862717   C94.003296,231.715744 93.847847,233.519073 92.100853,235.205994   C90.638336,235.540161 89.568253,235.639542 88.246841,235.835388   C77.971794,235.823318 67.948059,235.714798 57.471138,235.484619  z"/>
<path fill="#48413C" opacity="1.000000" stroke="none" d=" M91.879700,235.768372   C91.702400,226.934189 91.696381,218.427597 91.798538,209.463455   C93.031715,208.102661 94.268921,207.799973 96.067223,208.590485   C97.567665,210.294327 97.733711,212.028168 97.399933,213.593460   C95.665047,221.729263 96.899094,229.956024 96.225525,238.557114   C94.113380,238.789719 92.963760,237.604019 91.879700,235.768372  z"/>
<path fill="#D2E2E7" opacity="1.000000" stroke="none" d=" M102.202377,242.964584   C103.803642,241.594421 105.845764,242.022278 107.794373,242.017426   C121.013123,241.984543 134.232162,241.963608 147.450714,242.025055   C150.771011,242.040482 154.041321,241.864944 157.695007,241.042236   C156.323029,243.924103 153.383301,243.638184 150.601883,243.644241   C135.380905,243.677414 120.159836,243.670822 104.480011,243.775192   C103.831459,244.036758 103.641693,244.201035 103.274689,244.033142   C102.958336,243.389313 102.723457,243.191055 102.202377,242.964584  z"/>
<path fill="#48433E" opacity="1.000000" stroke="none" d=" M165.222107,232.575653   C165.002396,233.439056 164.999924,233.884827 164.996475,234.664917   C163.852310,236.023758 162.765594,237.233002 160.779541,235.811096   C160.426270,230.238007 160.403412,225.069748 160.548080,219.910980   C160.640915,216.601166 157.726089,213.703400 159.542969,209.794144   C160.066559,208.385071 160.713287,207.707932 162.166077,207.299774   C163.670334,207.353745 164.443710,207.882950 165.249451,209.113098   C165.538895,217.085632 165.538391,224.621826 165.222107,232.575653  z"/>
<path fill="#484847" opacity="1.000000" stroke="none" d=" M96.185715,239.199280   C95.989777,229.305817 95.991577,219.622894 95.992630,209.471527   C95.927498,208.677612 95.863121,208.352188 96.117218,207.645233   C97.914474,206.218369 99.617447,206.513840 101.248276,206.512054   C118.955826,206.492676 136.663422,206.488602 154.370956,206.516418   C156.305695,206.519470 158.407120,206.054169 160.090088,208.306992   C158.602661,211.704971 155.693924,211.104233 153.142944,211.124573   C137.873703,211.246445 122.602196,211.283218 107.334671,211.108414   C102.931747,211.057999 99.502869,211.880478 97.494919,216.678955   C97.253441,224.419357 96.214561,231.827087 97.903450,239.570099   C97.451019,239.789322 96.917236,239.599579 96.185715,239.199280  z"/>
<path fill="#333D40" opacity="1.000000" stroke="none" d=" M165.262527,232.993393   C164.997757,225.309647 164.990646,217.625992 164.979340,209.474106   C162.783813,203.045853 162.494385,197.084198 165.447769,191.065659   C166.057556,191.454147 166.179321,191.897141 166.412781,192.667007   C166.427567,206.020035 166.330688,219.046188 166.134644,232.530655   C165.863708,232.990463 165.691956,232.991989 165.262527,232.993393  z"/>
<path fill="#46433F" opacity="1.000000" stroke="none" d=" M160.856354,236.149033   C162.238068,235.700943 163.291046,235.398285 164.669769,235.047440   C164.643158,237.149765 163.478149,238.506943 160.884033,238.838623   C160.598648,238.432922 160.684128,238.019608 160.767960,237.289490   C160.686768,236.746613 160.607193,236.520554 160.856354,236.149033  z"/>
<path fill="#D7E5EA" opacity="1.000000" stroke="none" d=" M210.417023,234.193695   C210.631500,233.866043 211.181015,233.516037 212.068481,233.156189   C211.854965,233.488007 211.303513,233.829681 210.417023,234.193695  z"/>
<path fill="#3B3D3A" opacity="1.000000" stroke="none" d=" M103.169189,243.846893   C103.097450,243.701004 103.580643,243.672195 103.800934,243.772339   C104.021233,243.872498 103.642967,244.147949 103.642967,244.147949   C103.642967,244.147949 103.240929,243.992798 103.169189,243.846893  z"/>
<path fill="#353839" opacity="1.000000" stroke="none" d=" M35.344631,139.197968   C35.707825,140.409653 35.740688,141.803253 35.855080,143.608627   C35.866791,160.744064 35.777409,177.467712 35.735474,194.191452   C35.714699,202.474915 35.781246,210.758575 35.770920,219.507996   C33.053131,218.732300 34.121773,216.287476 34.034512,214.309906   C33.882271,210.859726 33.991264,207.397995 33.987003,203.474579   C33.847961,202.144653 33.498695,201.436615 32.309120,201.045044   C29.968512,198.969940 30.617817,196.424316 30.666134,193.570801   C33.191055,187.206177 31.955412,181.029831 31.735889,174.987259   C31.555433,170.020081 31.690201,165.060196 31.547750,160.099274   C31.498924,158.398865 32.065758,156.832565 33.683678,155.320435   C34.592144,149.815903 32.757545,144.463364 35.344631,139.197968  z"/>
<path fill="#EDF5FA" opacity="1.000000" stroke="none" d=" M51.302509,235.138275   C52.180874,233.923218 53.395420,233.585602 54.820122,235.108582   C53.851372,235.336029 52.731602,235.310745 51.302509,235.138275  z"/>
<path fill="#ACC3D6" opacity="1.000000" stroke="none" d=" M22.449863,148.562897   C24.100891,147.724014 25.708183,146.901321 27.650791,146.018188   C30.839909,150.317734 30.025648,155.430649 30.312691,160.121109   C30.968103,170.830917 30.292274,181.602570 30.789906,192.799500   C31.049231,194.732056 31.004917,196.216171 30.857658,198.126404   C30.432671,199.424072 29.732746,199.854813 28.470320,200.208679   C27.524981,200.472610 26.979731,200.453384 26.265186,199.909729   C23.116150,197.892578 20.141747,196.250290 16.998085,194.296982   C16.098579,180.647125 16.657936,167.299072 16.689404,153.489655   C16.879641,152.852493 16.923117,152.681503 16.980156,152.246231   C18.031513,150.105240 19.787594,149.170700 22.008503,148.462433   C22.339794,148.513519 22.406128,148.579102 22.449863,148.562897  z"/>
<path fill="#434746" opacity="1.000000" stroke="none" d=" M16.622927,153.373520   C16.879017,166.368622 16.921871,179.713776 16.896774,193.522430   C16.586506,193.818207 16.380449,193.613876 16.099405,193.184662   C16.271542,179.906952 15.456656,166.805756 16.622927,153.373520  z"/>
<path fill="#434746" opacity="1.000000" stroke="none" d=" M21.955359,148.392853   C20.744984,149.560715 19.150173,150.607925 17.274540,151.818527   C17.067770,148.954224 18.895592,148.090347 21.955359,148.392853  z"/>
<path fill="#484847" opacity="1.000000" stroke="none" d=" M33.637581,155.006210   C31.939182,165.729385 34.486820,176.450836 33.969704,187.169174   C33.878448,189.060684 34.744717,191.228836 32.375000,192.860718   C31.443138,193.397675 30.833029,193.493744 29.881165,192.900467   C29.474607,180.160202 29.380941,167.807281 30.064707,155.223785   C31.426031,154.996674 32.357338,155.000565 33.637581,155.006210  z"/>
<path fill="#b8c6d5" opacity="1.000000" stroke="none" d=" M30.409372,154.547791   C30.437603,167.373749 30.380482,179.754730 30.447662,192.591522   C30.549000,193.237045 30.526035,193.426743 30.289547,193.807617   C28.523689,192.331543 29.024742,190.252914 29.018438,188.318222   C28.979630,176.408981 29.005106,164.499573 28.992048,152.590210   C28.989883,150.616074 29.207933,148.606537 28.150768,146.344360   C28.215536,145.689606 28.444963,145.421448 28.838371,144.943512   C31.611876,147.550781 29.603188,151.019302 30.409372,154.547791  z"/>
<path fill="#434746" opacity="1.000000" stroke="none" d=" M36.763763,127.112015   C36.907555,128.793640 36.702667,130.583420 36.313225,132.707245   C34.755524,131.028656 34.186085,129.055557 36.763763,127.112015  z"/>
<path fill="#434746" opacity="1.000000" stroke="none" d=" M39.556953,117.058823   C39.684761,117.533905 39.563858,118.071770 39.246517,118.812080   C38.234966,118.260643 38.216003,117.615356 39.556953,117.058823  z"/>
<path fill="#434746" opacity="1.000000" stroke="none" d=" M40.534496,114.058365   C40.648262,114.523499 40.516132,115.051743 40.204849,115.793335   C39.229301,115.254997 39.216610,114.612602 40.534496,114.058365  z"/>
<path fill="#434746" opacity="1.000000" stroke="none" d=" M38.425308,121.111786   C38.612305,121.247147 38.616302,121.427216 38.442272,121.810501   C38.162262,121.805923 38.041397,121.603958 37.973984,121.385490   C37.960255,121.341003 38.147636,121.234451 38.425308,121.111786  z"/>
<path fill="#3D3735" opacity="1.000000" stroke="none" d=" M31.522970,150.489380   C31.531675,150.513321 31.514265,150.465454 31.522970,150.489380  z"/>
<path fill="#3D3735" opacity="1.000000" stroke="none" d=" M30.177513,194.407898   C30.160267,193.841049 30.244511,193.683304 30.450359,193.286469   C30.891422,193.062225 31.209721,193.049026 31.766098,193.003143   C32.004776,195.362167 32.004211,197.725830 32.005013,200.530396   C31.641768,200.980927 31.277155,200.990540 30.640411,201.027344   C29.748606,200.818985 29.487316,200.373337 29.831970,199.360352   C30.146038,197.607773 30.212519,196.212372 30.177513,194.407898  z"/>
<path fill="#b8c6d5" opacity="1.000000" stroke="none" d=" M29.781391,199.046783   C30.159245,199.456299 30.238935,199.909424 30.343452,200.708527   C29.922264,201.027664 29.476250,201.000824 28.698093,200.920990   C28.097059,200.821564 27.828165,200.775146 27.775383,200.381119   C28.488739,199.719147 28.985983,199.404770 29.781391,199.046783  z"/>
<path fill="#434746" opacity="1.000000" stroke="none" d=" M27.664783,199.995621   C27.991489,200.033508 28.190641,200.445312 28.278297,200.656647   C27.729494,200.624954 27.093035,200.381927 26.273565,199.836884   C26.506395,199.675827 26.922235,199.816772 27.664783,199.995621  z"/>
<path fill="#42413b" opacity="1.000000" stroke="none" d=" M96.250977,207.757263   C96.005058,208.007935 96.000404,208.505493 95.996140,208.754272   C94.902596,209.003632 93.813324,209.004211 92.315384,209.005356   C91.835777,203.977798 91.764832,198.949677 91.808586,193.467651   C92.081238,192.852203 92.239197,192.690674 92.186432,192.263733   C91.906731,191.833954 91.837746,191.669617 91.685196,191.251144   C93.313789,184.408066 97.426407,180.495239 104.643814,179.465332   C121.740318,178.911179 138.466034,178.584579 155.590286,179.759018   C158.049393,181.762695 161.248108,181.543533 162.974701,184.378082   C163.785995,186.553726 164.603592,188.391693 164.131378,190.856186   C163.813538,192.088791 163.335403,192.714264 162.236328,193.269226   C161.626251,193.381226 161.379425,193.371857 160.818665,193.183990   C159.654785,192.215668 159.528412,191.019104 158.704437,189.863281   C158.288193,189.283005 158.038254,188.962784 157.549530,188.443634   C156.999680,187.964767 156.672821,187.699829 156.047333,187.271118   C155.539276,187.001144 155.324265,186.901810 154.758453,186.683929   C152.643036,186.061127 150.867554,185.533173 149.023590,185.527634   C135.025970,185.485474 121.027962,185.440018 107.030945,185.566620   C105.234489,185.582870 103.358284,185.641693 101.335144,186.674988   C100.836998,187.081848 100.652405,187.256500 100.211205,187.704041   C95.618103,191.782196 97.820717,196.530121 98.156387,201.345398   C98.260513,201.930298 98.285812,202.167297 98.342804,202.761780   C98.385666,203.598602 98.366943,204.076767 98.246826,204.905945   C97.915939,206.231659 97.161400,206.835526 96.250977,207.757263  z"/>
<path fill="#433E3C" opacity="1.000000" stroke="none" d=" M75.566574,103.907959   C77.273300,103.981583 78.639778,103.994247 80.416000,104.008148   C83.221107,106.108406 86.224785,104.624603 88.882942,105.374649   C92.580406,106.417953 96.241081,107.453682 99.689507,109.928848   C99.633926,111.213921 99.325874,112.254128 99.008667,113.623734   C98.663246,114.360680 98.234848,114.611786 97.331879,114.704460   C96.703392,114.624428 96.458900,114.549004 95.884949,114.279266   C89.993423,110.934425 84.553566,107.434738 77.757919,111.096329   C76.213257,111.928619 74.200630,111.819138 72.303818,110.313286   C71.772522,109.579025 71.525658,109.090271 71.155945,108.356613   C71.916756,107.650627 72.800430,107.189537 73.873055,106.493202   C74.577782,105.515961 74.320213,104.400497 75.566574,103.907959  z"/>
<path fill="#ECF4F5" opacity="1.000000" stroke="none" d=" M155.850510,179.673096   C141.459412,179.071075 126.908173,179.865341 112.367325,179.610840   C110.218254,179.573227 108.068565,179.571838 105.466766,179.426865   C105.985954,177.735870 107.567787,178.007736 109.028290,178.006546   C123.256363,177.994980 137.484482,177.991226 151.712524,178.015045   C153.151047,178.017456 154.761993,177.685608 155.850510,179.673096  z"/>
<path fill="#303938" opacity="1.000000" stroke="none" d=" M113.440971,131.815689   C113.494392,130.410461 114.653397,130.002213 116.111748,130.006058   C124.933662,130.029297 133.755630,130.029022 142.577530,130.053696   C143.444427,130.056122 144.191986,130.391769 144.837997,131.528900   C134.644272,131.820557 124.272934,131.767792 113.440971,131.815689  z"/>
<path fill="#424848" opacity="1.000000" stroke="none" d=" M162.758911,192.400040   C163.020020,189.869507 163.041870,187.736877 163.092010,185.145111   C164.933609,186.115723 165.518326,188.182465 165.980652,190.650269   C163.884323,196.600739 165.522308,202.395325 164.981583,208.537537   C164.446671,208.809158 163.918228,208.612442 163.192871,208.207764   C162.096771,207.080750 161.406143,206.068100 161.509705,204.230942   C161.815308,200.106445 160.698380,196.316376 162.758911,192.400040  z"/>
<path fill="#D7E5EA" opacity="1.000000" stroke="none" d=" M221.790894,148.736908   C222.092972,151.391373 222.165222,153.763016 222.128922,156.568390   C218.768555,152.331696 218.575424,146.971161 218.774551,141.277344   C220.907898,143.113312 220.605377,145.998474 221.790894,148.736908  z"/>
<path fill="#FBFCFB" opacity="1.000000" stroke="none" d=" M75.790131,103.568985   C75.504417,104.692062 75.102005,105.415199 74.380798,106.198143   C74.296898,103.994316 73.342438,101.603584 75.063797,99.252487   C75.451241,100.413490 75.562340,101.791260 75.790131,103.568985  z"/>
<path fill="#D7E5EA" opacity="1.000000" stroke="none" d=" M197.503265,152.995514   C197.580475,152.403366 197.954117,151.797989 198.562668,151.060318   C200.218765,152.464706 199.026291,152.731766 197.503265,152.995514  z"/>
<path fill="#D7E5EA" opacity="1.000000" stroke="none" d=" M204.061890,131.894379   C203.725952,131.529358 203.576187,131.015686 203.493484,130.238571   C204.409500,130.324661 204.942276,130.796982 204.061890,131.894379  z"/>
<path fill="#E8F7FC" opacity="1.000000" stroke="none" d=" M203.413147,140.760071   C203.205231,140.650391 203.188110,140.483826 203.269440,140.086182   C203.537003,140.044937 203.714233,140.228989 203.861435,140.434540   C203.874725,140.453094 203.694382,140.610336 203.413147,140.760071  z"/>
<path fill="#424241" opacity="1.000000" stroke="none" d=" M169.492096,105.501663   C169.656631,107.417473 169.098099,108.539566 167.103409,106.423309   C167.709320,105.906799 168.415985,105.695679 169.492096,105.501663  z"/>
<path fill="#3A383B" opacity="1.000000" stroke="none" d=" M145.830673,125.909798   C145.643112,126.972664 145.493713,128.316910 144.138138,126.785660   C144.195145,126.494072 144.353363,126.408432 144.747040,126.190987   C145.193115,125.898178 145.403717,125.737190 145.830673,125.909798  z"/>
<path fill="#E8F1F6" opacity="1.000000" stroke="none" d=" M112.842255,125.815269   C112.638046,125.885765 112.263748,125.736458 111.832985,125.264664   C112.075073,125.159943 112.373611,125.377708 112.842255,125.815269  z"/>
<path fill="#E8F1F6" opacity="1.000000" stroke="none" d=" M146.114746,125.916931   C145.863556,126.247910 145.680084,126.252426 145.239563,126.158051   C145.236450,125.783333 145.490387,125.507507 145.982361,125.078201   C146.207779,125.146645 146.195114,125.368553 146.114746,125.916931  z"/>
<path fill="#0BD7E1" opacity="1.000000" stroke="none" d=" M196.567749,125.689102   C199.952820,136.882233 196.960052,147.003784 188.649872,153.291748   C180.727509,159.286270 170.096970,159.763977 161.487671,154.512344   C152.897110,149.272141 148.731461,139.470627 150.698181,129.125443   C152.419113,120.073120 160.362106,112.229095 169.425339,110.631622   C179.741608,108.813286 189.637390,113.163559 194.649734,121.754097   C195.317429,122.898438 195.843262,124.125565 196.567749,125.689102  z"/>
<path fill="#0AD8E2" opacity="1.000000" stroke="none" d=" M102.818169,119.224434   C102.877274,119.568398 102.877701,119.859451 102.990784,119.951050   C103.757881,120.536957 104.449890,120.997009 104.745087,122.143723   C107.869331,130.678650 108.857750,138.932571 103.840004,146.735931   C94.737717,160.891373 76.964043,161.970978 64.497093,149.095734   C63.115093,148.363617 62.787354,147.250244 62.221058,145.922760   C62.137203,145.596771 62.087280,145.268005 61.964111,145.156311   C60.977905,144.006104 60.548660,142.792938 60.260338,141.171875   C60.120388,140.877075 60.121872,140.964890 60.151993,140.932938   C56.385288,131.886749 60.902546,119.084282 69.633934,114.247864   C69.987213,114.033623 70.027840,114.036011 70.032120,114.016113   C78.319466,107.839699 86.887230,107.563934 96.766800,113.656769   C97.000275,113.992264 96.999390,114.001221 97.003929,113.999863   C97.761787,114.703400 98.858047,114.878609 99.714035,115.922333   C99.862389,116.190567 99.913437,116.105370 99.868591,116.084030   C100.182411,116.230629 100.477493,116.475250 100.809364,117.071381   C100.923737,117.624649 101.047363,117.840248 101.463913,118.051170   C102.109940,118.233589 102.476311,118.496750 102.818169,119.224434  z"/>
<path fill="#29524E" opacity="1.000000" stroke="none" d=" M69.615387,114.008545   C61.798565,120.825378 58.126793,129.321487 60.188797,140.442322   C55.895836,138.419998 58.197460,134.339996 58.125023,131.076111   C57.967930,123.997742 63.815617,115.559830 69.615387,114.008545  z"/>
<path fill="#29524E" opacity="1.000000" stroke="none" d=" M96.920822,113.649925   C88.276428,109.483696 79.528709,108.771751 70.390572,113.911713   C70.642654,112.892418 71.248894,111.788612 71.937256,110.376297   C74.662910,110.019455 77.116196,109.296707 79.677063,108.599236   C86.106163,106.848244 91.880630,108.945419 96.920822,113.649925  z"/>
<path fill="#29524E" opacity="1.000000" stroke="none" d=" M60.076263,141.244278   C60.669514,142.047516 61.218636,143.217972 61.804352,144.716522   C60.004429,144.550171 59.973495,143.104416 60.076263,141.244278  z"/>
<path fill="#29524E" opacity="1.000000" stroke="none" d=" M99.861603,115.878090   C99.013130,115.637985 98.163864,115.085396 97.161537,114.265656   C97.450737,113.983498 97.893013,113.968491 98.667404,113.953308   C99.286613,114.490623 99.573715,115.028114 99.861603,115.878090  z"/>
<path fill="#29524E" opacity="1.000000" stroke="none" d=" M62.111565,145.981415   C62.784328,146.485336 63.431450,147.373901 64.153534,148.585663   C62.693638,148.752747 62.069691,147.829102 62.111565,145.981415  z"/>
<path fill="#29524E" opacity="1.000000" stroke="none" d=" M104.787170,122.113884   C104.271736,121.836693 103.774529,121.222321 103.190598,120.325302   C104.072685,120.226547 104.726410,120.719650 104.787170,122.113884  z"/>
<path fill="#29524E" opacity="1.000000" stroke="none" d=" M100.809105,117.071991   C100.610985,117.103210 100.312256,116.860222 99.918640,116.339966   C100.118668,116.307724 100.413574,116.552750 100.809105,117.071991  z"/>
<path fill="#29524E" opacity="1.000000" stroke="none" d=" M102.763252,119.255447   C102.563065,119.275574 102.248856,118.982750 101.790939,118.399643   C101.981224,118.387070 102.315224,118.664787 102.763252,119.255447  z"/>
<path fill="#ADC4D6" opacity="1.000000" stroke="none" d=" M161.122528,235.538300   C161.125626,236.169708 161.066177,236.335800 160.886536,236.737274   C159.244415,232.261703 160.008194,227.403824 160.133041,222.644699   C160.246262,218.328018 158.954910,216.851624 154.490479,216.905838   C135.701370,217.133957 116.908058,217.015778 97.661194,217.033112   C97.154449,216.547028 97.068146,216.053024 97.056389,215.557236   C96.901413,209.026047 96.904045,209.025238 103.237869,209.020020   C121.842628,209.004669 140.447388,208.989960 159.515228,208.908249   C160.184296,208.746597 160.390320,208.651688 160.763611,208.853058   C160.973892,217.790573 161.016937,226.431778 161.122528,235.538300  z"/>
<path fill="#f2f2f2" opacity="1.000000" stroke="none" d=" M91.871597,192.247467   C92.288803,192.227173 92.353729,192.496552 92.046883,192.910095   C91.871346,192.841370 91.819405,192.669006 91.871597,192.247467  z"/>
<path fill="#48413C" opacity="1.000000" stroke="none" d=" M161.129776,208.917358   C160.768875,209.108002 160.606888,209.066635 160.211578,208.933380   C158.188538,207.577881 156.134903,208.018234 154.180298,208.015427   C135.100632,207.988037 116.020920,208.000748 96.473129,208.004990   C96.202164,207.157822 96.399284,206.307724 96.826981,205.219193   C98.931633,203.056259 101.367767,203.527130 103.643494,203.521454   C119.581741,203.481705 135.520111,203.503723 151.458435,203.500000   C154.114380,203.499374 156.774277,203.555405 159.882156,202.971649   C161.025162,202.918411 161.644623,203.084747 162.608841,203.703217   C162.996231,205.067062 162.997330,206.133499 162.997192,207.599854   C162.440201,208.228302 161.884445,208.456833 161.129776,208.917358  z"/>
<path fill="#F86546" opacity="1.000000" stroke="none" d=" M160.760803,191.523224   C160.978439,192.008743 160.990585,192.198898 161.076172,192.665268   C162.613373,195.688477 161.907410,198.597031 161.571320,201.902374   C160.114853,203.614273 158.561203,203.993103 156.838196,203.990265   C137.651108,203.958801 118.463799,204.105850 99.276909,203.912506   C98.768333,203.907379 98.312065,203.700104 97.427361,203.288269   C97.016823,203.016037 97.017891,202.989639 97.006844,202.982422   C96.509048,197.797638 95.241898,192.551636 98.637833,187.366913   C98.938919,187.045578 99.034248,187.033966 99.039963,186.986282   C100.724396,185.073990 102.909142,184.508820 105.309410,184.507874   C121.021980,184.501678 136.734543,184.510361 152.447098,184.496002   C153.797379,184.494766 155.084366,184.631485 156.635284,185.648193   C157.020767,185.927307 157.282318,186.118912 157.440079,186.156281   C158.034393,186.236542 158.397888,186.418518 158.748657,187.070892   C158.879227,187.625412 159.000244,187.833771 159.334076,188.109100   C161.246201,188.718887 160.155090,190.238022 160.760803,191.523224  z"/>
<path fill="#6D4337" opacity="1.000000" stroke="none" d=" M96.998627,203.343506   C116.937439,203.042847 136.858063,203.077759 156.778671,203.075409   C157.919708,203.075272 159.060699,202.770920 160.555908,202.394379   C161.271545,202.511536 161.439362,202.925903 161.244873,203.704010   C158.892487,205.139267 156.548935,204.966843 154.229568,204.966980   C135.480331,204.968109 116.731102,204.969757 97.519714,204.976013   C97.031853,204.544189 97.006149,204.107590 96.998627,203.343506  z"/>
<path fill="#6D4337" opacity="1.000000" stroke="none" d=" M156.877350,185.561890   C154.785721,185.244003 152.506927,185.013672 150.165054,185.019882   C135.911346,185.057632 121.657349,185.075119 107.403854,185.009201   C104.678429,184.996597 102.133888,185.356674 99.420609,186.868469   C99.343620,184.622894 100.949623,184.012222 102.952827,184.011368   C120.019310,184.004074 137.085785,184.009186 154.152267,184.020020   C155.173157,184.020676 156.130280,184.241394 156.877350,185.561890  z"/>
<path fill="#48433E" opacity="1.000000" stroke="none" d=" M161.373077,203.997314   C161.037018,203.588303 161.025116,203.180557 160.961670,202.476715   C160.926636,199.400299 160.943146,196.619980 161.054657,193.390564   C161.608704,192.700760 162.067764,192.460037 162.762497,192.110718   C162.998489,195.694504 162.998825,199.386856 162.997131,203.539917   C162.562485,203.999939 162.129868,203.999268 161.373077,203.997314  z"/>
<path fill="#6D4337" opacity="1.000000" stroke="none" d=" M98.563797,187.109329   C96.367134,191.803848 97.000038,196.971878 97.007385,202.518295   C95.912125,197.595993 94.058945,192.158722 98.563797,187.109329  z"/>
<path fill="#6D4337" opacity="1.000000" stroke="none" d=" M161.003128,191.464859   C160.532333,190.830856 160.098404,189.843155 159.574738,188.533722   C160.905807,188.694351 161.028107,189.873138 161.003128,191.464859  z"/>
<path fill="#6D4337" opacity="1.000000" stroke="none" d=" M158.714157,187.096710   C158.515121,187.149475 158.210190,186.917831 157.751556,186.439926   C157.934647,186.399872 158.271454,186.606079 158.714157,187.096710  z"/>
<path fill="#3b4a49" opacity="1.000000" stroke="none" d=" M163.736572,125.890976   C168.079239,121.026573 172.992050,119.584579 178.816925,121.813126   C183.978683,123.787971 186.896423,127.500984 187.243805,133.065674   C187.583282,138.503983 185.638596,142.845886 180.805115,145.636505   C175.793381,148.530045 168.552536,147.548828 164.656647,143.515503   C160.007095,138.701935 159.607666,132.718643 163.736572,125.890976  z"/>
<path fill="#3a4c4a" opacity="1.000000" stroke="none" d=" M74.271568,143.750183   C68.400894,136.086899 69.296211,127.347481 76.103455,123.014885   C82.969666,118.644783 91.410484,120.880844 95.346214,128.112503   C98.168983,133.299164 96.905502,140.027481 92.354271,144.045288   C87.256409,148.545654 81.052429,148.533295 74.271568,143.750183  z"/>
<path fill="#647989" opacity="1.000000" stroke="none" d=" M169.959991,127.929077   C175.365646,125.637466 179.789612,126.981026 181.492584,131.152725   C183.142563,135.194611 180.830109,140.527863 176.875916,141.800156   C172.566925,143.186615 168.020493,140.816803 166.692276,136.354156   C165.680649,132.955124 166.883194,130.226013 169.959991,127.929077  z"/>
<path fill="#647988" opacity="1.000000" stroke="none" d=" M77.645386,139.223495   C74.924805,135.400803 75.426590,131.900696 77.964287,128.811035   C79.732933,126.657684 82.345741,125.666603 85.159302,126.640457   C88.230316,127.703423 90.996925,129.176910 91.137749,133.110840   C91.257751,136.463196 90.838867,139.567612 87.441368,141.156967   C83.973137,142.779388 80.650177,142.616470 77.645386,139.223495  z"/>
</svg>