<?xml version="1.0" encoding="UTF-8"?>
<svg width="192px" height="192px" viewBox="0 0 192 192" version="1.1" xmlns="http://www.w3.org/2000/svg" xmlns:xlink="http://www.w3.org/1999/xlink">
    <title>ic-product-machine-learning-lg</title>
    <g id="Symbols" stroke="none" stroke-width="1" fill="none" fill-rule="evenodd">
        <g id="product/large/machine-learning" fill="#4CCF4C">
            <path d="M159.333,159.3335 L104.444,159.3335 L87.556,159.3335 C81.733,159.3335 77,154.3605 77,148.2505 C77,142.1395 81.733,137.1665 87.556,137.1665 L121.333,137.1665 C134.141,137.1665 144.556,126.5125 144.556,113.4165 C144.556,100.3215 134.141,89.6665 121.333,89.6665 L70.667,89.6665 C64.845,89.6665 60.111,84.6935 60.111,78.5835 C60.111,72.4725 64.845,67.5005 70.667,67.5005 L104.444,67.5005 C117.251,67.5005 127.667,56.8455 127.667,43.7505 C127.667,39.7265 126.592,35.9915 124.857,32.6665 L159.333,32.6665 L159.333,159.3335 Z M32.667,32.6665 L87.556,32.6665 L104.444,32.6665 C110.267,32.6665 115,37.6395 115,43.7505 C115,49.8605 110.267,54.8335 104.444,54.8335 L70.667,54.8335 C57.859,54.8335 47.444,65.4875 47.444,78.5835 C47.444,91.6785 57.859,102.3335 70.667,102.3335 L121.333,102.3335 C127.155,102.3335 131.889,107.3065 131.889,113.4165 C131.889,119.5275 127.155,124.5005 121.333,124.5005 L87.556,124.5005 C74.749,124.5005 64.333,135.1545 64.333,148.2505 C64.333,152.2735 65.408,156.0085 67.143,159.3335 L32.667,159.3335 L32.667,32.6665 Z M159.333,20.0005 L104.444,20.0005 L87.556,20.0005 L32.667,20.0005 C25.671,20.0005 20,25.6705 20,32.6665 L20,159.3335 C20,166.3295 25.671,172.0005 32.667,172.0005 L87.556,172.0005 L104.444,172.0005 L159.333,172.0005 C166.329,172.0005 172,166.3295 172,159.3335 L172,32.6665 C172,25.6705 166.329,20.0005 159.333,20.0005 L159.333,20.0005 Z" id="Fill-1"></path>
        </g>
    </g>
</svg>