<svg xmlns="http://www.w3.org/2000/svg" width="118" height="40" viewBox="0 0 118 40">
  <path d="M112.749 25.128c.552 0 1.036.111 1.453.333.416.221.755.549 1.016.982V25.31h1.28v7.223c0 1.058-.266 1.882-.798 2.47-.532.59-1.38.885-2.545.885-.964 0-1.742-.21-2.334-.627-.592-.418-.924-1.03-.994-1.836h1.386c.02.453.203.8.55 1.042.346.242.805.363 1.377.363.733 0 1.262-.189 1.589-.567.326-.377.49-.894.49-1.549v-1.209a2.48 2.48 0 01-1.002.96c-.417.217-.906.325-1.468.325-.713 0-1.3-.174-1.762-.521a3.015 3.015 0 01-1.017-1.383c-.216-.574-.324-1.22-.324-1.934 0-.706.11-1.348.332-1.927.22-.58.562-1.04 1.024-1.383.462-.343 1.044-.514 1.747-.514zm-96.269 0c.773 0 1.385.126 1.837.378.452.252.773.61.964 1.073.19.463.286 1.038.286 1.723v4.367h-1.31v-.982c-.241.373-.572.66-.994.861-.422.202-.929.302-1.52.302-.854 0-1.504-.201-1.95-.604-.448-.403-.671-.942-.671-1.617 0-.816.301-1.4.904-1.753.602-.353 1.485-.529 2.65-.529h1.58v-.242c0-.433-.052-.79-.157-1.073a1.234 1.234 0 00-.542-.65c-.256-.15-.61-.226-1.062-.226-.602 0-1.046.126-1.333.378-.286.251-.429.61-.429 1.073h-1.34c0-.776.264-1.383.79-1.821.528-.439 1.293-.658 2.297-.658zm62.718 0c.773 0 1.386.126 1.837.378.452.252.773.61.964 1.073.191.463.286 1.038.286 1.723v4.367h-1.31v-.982c-.24.373-.572.66-.994.861-.421.202-.928.302-1.52.302-.854 0-1.504-.201-1.95-.604-.447-.403-.67-.942-.67-1.617 0-.816.3-1.4.903-1.753.602-.353 1.486-.529 2.65-.529h1.581v-.242c0-.433-.052-.79-.158-1.073a1.234 1.234 0 00-.542-.65c-.256-.15-.61-.226-1.062-.226-.602 0-1.046.126-1.332.378-.286.251-.43.61-.43 1.073h-1.34c0-.776.264-1.383.79-1.821.528-.439 1.293-.658 2.297-.658zm-26.036 0c.753 0 1.393.161 1.92.484.527.322.921.77 1.182 1.345.14.322.236.66.286 1.012.05.353.08.781.09 1.285H50.98c.03.786.218 1.4.565 1.843.346.444.906.665 1.679.665.552 0 .996-.12 1.332-.362.337-.242.555-.585.655-1.028h1.356c-.08.524-.274.97-.58 1.337a2.915 2.915 0 01-1.167.84 4.171 4.171 0 01-1.581.286c-.814 0-1.489-.168-2.026-.506a3.042 3.042 0 01-1.19-1.375c-.255-.58-.383-1.237-.383-1.972 0-.726.128-1.38.384-1.965a3.063 3.063 0 011.174-1.383c.527-.337 1.182-.506 1.965-.506zm-28.4 0c.623 0 1.172.114 1.65.34.476.227.85.557 1.12.99.272.433.418.947.438 1.541h-1.416c-.03-.544-.203-.967-.52-1.269-.316-.302-.74-.453-1.272-.453-.733 0-1.265.254-1.596.763-.331.509-.497 1.156-.497 1.942 0 .816.166 1.473.497 1.972.331.499.863.748 1.596.748.362 0 .675-.073.941-.22.266-.145.47-.344.61-.596a1.86 1.86 0 00.226-.862h1.43c-.02.585-.168 1.089-.444 1.512a2.651 2.651 0 01-1.129.967c-.477.222-1.021.332-1.634.332-.793 0-1.448-.17-1.965-.513a3.052 3.052 0 01-1.144-1.383c-.246-.58-.37-1.232-.37-1.957 0-.726.126-1.378.377-1.957.251-.58.638-1.04 1.16-1.383.522-.343 1.17-.514 1.942-.514zm46.38 0c.753 0 1.393.161 1.92.484.527.322.921.77 1.182 1.345.14.322.236.66.286 1.012.05.353.08.781.09 1.285H68.96c.03.786.218 1.4.564 1.843.347.444.906.665 1.68.665.551 0 .996-.12 1.332-.362.336-.242.555-.585.655-1.028h1.355c-.08.524-.273.97-.58 1.337a2.915 2.915 0 01-1.166.84 4.171 4.171 0 01-1.582.286c-.813 0-1.488-.168-2.025-.506a3.042 3.042 0 01-1.19-1.375c-.256-.58-.384-1.237-.384-1.972 0-.726.128-1.38.384-1.965a3.063 3.063 0 011.175-1.383c.527-.337 1.182-.506 1.965-.506zM62.755 22v9.43h4.095v1.24h-5.496V22h1.4zM2.717 22l3.373 8.372L9.478 22h1.686v10.67H9.84v-8.494L6.436 32.67h-.693l-3.418-8.493v8.493H1V22h1.717zm28.325 0v4.337c.24-.403.557-.705.948-.907.392-.201.849-.302 1.37-.302.854 0 1.499.252 1.936.756.436.504.655 1.25.655 2.236v4.55h-1.295v-4.293c0-.725-.141-1.257-.422-1.594-.281-.338-.713-.506-1.295-.506-.612 0-1.082.176-1.408.529-.326.352-.49.871-.49 1.556v4.307h-1.31V22h1.31zm74.313 3.128c.853 0 1.498.252 1.935.756.437.504.655 1.25.655 2.236v4.55h-1.295v-4.293c0-.725-.14-1.257-.422-1.594-.28-.338-.713-.506-1.295-.506-.612 0-1.082.176-1.408.529-.326.352-.49.871-.49 1.556v4.307h-1.31v-7.36h1.31v1.028c.242-.403.558-.705.95-.907.391-.201.848-.302 1.37-.302zm-65.896.182v7.36h-1.31v-7.36h1.31zm5.888-.182c.853 0 1.498.252 1.935.756.437.504.655 1.25.655 2.236v4.55h-1.295v-4.293c0-.725-.14-1.257-.422-1.594-.28-.338-.712-.506-1.295-.506-.612 0-1.081.176-1.408.529-.326.352-.489.871-.489 1.556v4.307h-1.31v-7.36h1.31v1.028c.241-.403.557-.705.949-.907.391-.201.848-.302 1.37-.302zm54.12.182v7.36h-1.31v-7.36h1.31zm-6.099-.182c.854 0 1.499.252 1.935.756.437.504.655 1.25.655 2.236v4.55h-1.295v-4.293c0-.725-.14-1.257-.421-1.594-.281-.338-.713-.506-1.295-.506-.613 0-1.082.176-1.408.529-.327.352-.49.871-.49 1.556v4.307h-1.31v-7.36h1.31v1.028c.241-.403.557-.705.949-.907.392-.201.848-.302 1.37-.302zm-5.692.09c.261 0 .497.031.708.092v1.178a2.79 2.79 0 00-.678-.075c-.622 0-1.094.194-1.415.582-.321.387-.482.934-.482 1.64v4.034h-1.31v-7.36h1.295v.998c.18-.353.43-.622.745-.809.317-.186.696-.28 1.137-.28zm-6.7 4.066H79.5c-.763 0-1.33.09-1.702.272-.372.181-.557.499-.557.952 0 .403.135.718.406.945.271.226.668.34 1.19.34.783 0 1.335-.22 1.656-.658.322-.438.482-1.045.482-1.82v-.031zm-62.72 0h-1.475c-.763 0-1.33.09-1.701.272-.372.181-.558.499-.558.952 0 .403.136.718.407.945.271.226.668.34 1.19.34.783 0 1.335-.22 1.656-.658.321-.438.482-1.045.482-1.82v-.031zm94.884-3.007c-.743 0-1.282.252-1.619.755-.336.504-.504 1.149-.504 1.935 0 .796.168 1.448.504 1.957.337.508.876.763 1.619.763.653 0 1.162-.217 1.528-.65.367-.433.55-1.048.55-1.844v-.438c0-.786-.183-1.395-.55-1.828-.366-.434-.875-.65-1.528-.65zm-59.978-.091c-1.255 0-1.967.695-2.138 2.085h4.231c-.06-.664-.256-1.178-.587-1.54-.331-.364-.833-.545-1.506-.545zm17.98 0c-1.255 0-1.968.695-2.138 2.085h4.231c-.06-.664-.256-1.178-.587-1.54-.331-.364-.833-.545-1.506-.545zM98.82 22c.241 0 .447.083.618.25.17.166.256.37.256.611a.797.797 0 01-.256.605.867.867 0 01-.618.242.834.834 0 01-.617-.242.822.822 0 01-.24-.605.84.84 0 01.24-.62.834.834 0 01.617-.241zm-60.007 0c.24 0 .446.083.617.25.17.166.256.37.256.611a.797.797 0 01-.256.605.867.867 0 01-.617.242.834.834 0 01-.618-.242.822.822 0 01-.24-.605.84.84 0 01.24-.62.834.834 0 01.618-.241zM33.454 7.22v5.387c0 1.527.887 2.448 2.133 2.448 1.247 0 2.133-.921 2.133-2.448V7.22h2.257v5.3c0 2.792-1.773 4.555-4.39 4.555s-4.39-1.763-4.39-4.554V7.22h2.257zM5.192 7c1.418 0 2.645.526 3.523 1.422L7.261 9.86c-.58-.542-1.242-.824-2.044-.824-1.667 0-2.875 1.298-2.875 3 0 1.703 1.208 3.004 2.875 3.004.91 0 1.607-.344 2.192-.982l1.446 1.43c-.883.995-2.18 1.587-3.663 1.587C2.26 17.075 0 14.862 0 12.037 0 9.213 2.26 7 5.192 7zm18.644 0c2.99 0 5.146 2.219 5.146 5.052 0 2.816-2.157 5.023-5.146 5.023-2.99 0-5.146-2.207-5.146-5.023C18.69 9.219 20.847 7 23.836 7zm55.662.22l4.16 9.635h-2.283l-.79-1.967h-4.15l-.79 1.967h-2.283l4.114-9.635h2.022zm-10.85 0c1.253 0 2.173.302 2.833.86.66.557 1.043 1.413 1.043 2.433 0 1.276-.548 2.601-2.478 3.1l2.78 3.242h-2.628l-2.588-3.042h-1.243v3.042h-2.212V7.22h4.494zm-55.356 0v7.674h4.572v1.96h-6.829V7.22h2.257zm33.31 0c3.198 0 5.441 1.936 5.441 4.817 0 2.882-2.149 4.818-5.346 4.818H42.79V7.22h3.81zm14.91 7.643v1.992h-8.443a6.26 6.26 0 001.336-1.992h7.106zM23.835 9.021c-1.64 0-2.804 1.274-2.804 3.031 0 1.74 1.164 3.003 2.804 3.003 1.641 0 2.804-1.263 2.804-3.003 0-1.757-1.163-3.031-2.804-3.031zm22.7.125h-1.488v5.783h1.489c1.893 0 3.164-1.152 3.164-2.892s-1.271-2.891-3.164-2.891zm31.974.578L77.154 13.1h2.712L78.51 9.724zM60.31 11.02v1.972h-5.426c.037-.303.062-.612.062-.932a7.41 7.41 0 00-.08-1.04h5.444zm8.214-1.918h-2.158v2.893h2.165c.579 0 .99-.129 1.283-.377.275-.235.454-.637.454-1.074 0-.426-.172-.824-.434-1.051-.295-.257-.72-.39-1.31-.39zM61.467 7.22v1.991h-7.1a6.336 6.336 0 00-1.406-1.991h8.506z" fill="#828282" fill-rule="nonzero"/>
</svg>