<svg xmlns="http://www.w3.org/2000/svg" xmlns:xlink="http://www.w3.org/1999/xlink" version="1.1" id="Layer_1" x="0px" y="0px" width="100%" viewBox="0 0 743 763" enable-background="new 0 0 743 763" xml:space="preserve">
<path fill="#ffffff" opacity="1.000000" stroke="none" d=" M1.000000,287.000000   C1.000000,191.333328 1.000000,96.166664 1.000000,1.000000   C248.666672,1.000000 496.333344,1.000000 744.000000,1.000000   C744.000000,255.333328 744.000000,509.666656 744.000000,764.000000   C496.333344,764.000000 248.666672,764.000000 1.000000,764.000000   C1.000000,605.166687 1.000000,446.333344 1.000000,287.000000  M572.500000,729.997375   C585.618347,729.668823 598.750488,729.611328 611.851440,728.941772   C627.588928,728.137451 640.799561,721.085754 651.936462,710.424377   C666.013489,696.948730 672.441101,679.909180 672.956665,660.602051   C673.192383,651.775452 672.830505,642.931702 673.133728,634.109314   C673.198608,632.221191 674.484314,629.574341 676.027161,628.660217   C693.367126,618.386963 710.835327,608.328064 728.358154,598.368286   C731.046814,596.840027 732.041321,595.020325 732.037415,592.014221   C731.976074,545.017090 732.023865,498.019836 731.871826,451.023132   C731.866394,449.354340 730.476624,447.024994 729.033203,446.126953   C711.083191,434.959381 692.988831,424.023926 674.989441,412.934998   C673.765320,412.180847 672.369873,410.790192 672.137939,409.500671   C671.204956,404.311951 670.533875,399.061340 670.063660,393.806946   C668.450012,375.774109 663.979736,358.333374 658.484070,341.210876   C649.385254,312.862213 636.153931,286.502625 619.074524,262.033691   C601.871643,237.387909 581.446960,215.821030 557.733276,197.493301   C535.922607,180.636398 512.183044,166.926910 486.467773,156.787094   C459.579803,146.184860 431.883392,139.021469 402.962769,136.965729   C398.104797,136.620422 393.268616,135.968094 388.377441,135.452881   C404.272400,77.110924 460.367584,42.905857 523.146362,45.431889   C523.085571,46.390003 523.125305,47.363476 522.949646,48.296394   C519.471008,66.769608 523.940979,82.557083 537.989685,95.603226   C549.815186,106.584839 573.223633,110.553070 587.848633,103.615372   C607.675293,94.210129 617.833069,79.035751 617.079590,56.700912   C616.659363,44.244541 611.928833,33.660545 603.445984,25.155359   C586.167664,7.831581 555.500305,6.903135 538.366943,23.013426   C537.102234,24.202599 535.326843,25.472828 533.722107,25.567017   C527.156677,25.952368 520.565796,25.949614 513.983582,25.991470   C496.991577,26.099524 480.471771,29.047703 464.270264,34.042046   C432.433746,43.856079 406.850555,62.322433 387.893494,89.705864   C378.229370,103.665718 371.705627,119.161972 367.541351,135.490646   C360.817322,136.005569 354.337097,136.127365 347.976715,137.063461   C332.649261,139.319305 317.152832,141.023758 302.134247,144.648254   C276.824921,150.756271 252.861099,160.623367 230.046768,173.367706   C207.375626,186.032043 186.896545,201.578186 168.237030,219.456955   C159.540039,227.790054 151.867889,237.232117 144.075714,246.462341   C124.807297,269.286743 110.255424,295.020691 99.323822,322.673981   C88.780930,349.343933 81.768578,376.994995 79.953941,405.782196   C79.703629,409.753082 78.045425,412.743256 74.371368,414.930481   C57.199730,425.153076 40.126644,435.543304 23.131966,446.057343   C21.665106,446.964813 20.141811,449.212311 20.136295,450.842377   C19.976698,498.005707 19.965252,545.169800 20.156134,592.332886   C20.164095,594.300110 21.865524,597.071655 23.592087,598.095276   C40.929016,608.373474 58.478374,618.293274 75.825127,628.555298   C77.393257,629.482971 78.807617,632.070496 78.860214,633.927795   C79.152565,644.252258 78.716476,654.598755 79.060898,664.919983   C79.849922,688.564575 91.342033,706.219666 110.559738,719.181335   C122.785088,727.427002 136.687546,729.960754 151.145752,729.980530   C188.143463,730.031067 225.141327,730.022034 262.139008,729.955505   C265.379730,729.949646 267.370178,730.877014 269.518494,733.670349   C279.745972,746.968628 292.985168,754.216187 310.325653,754.097107   C354.154327,753.796082 397.986481,753.948730 441.817078,754.022217   C458.116730,754.049561 470.227570,746.181885 479.880890,733.948669   C482.066406,731.179077 483.967041,729.904541 487.505402,729.921753   C515.503052,730.057861 543.501648,729.997375 572.500000,729.997375  z"/>
<path fill="#315969" opacity="1.000000" stroke="none" d=" M572.000000,729.997314   C543.501648,729.997375 515.503052,730.057861 487.505402,729.921753   C483.967041,729.904541 482.066406,731.179077 479.880890,733.948669   C470.227570,746.181885 458.116730,754.049561 441.817078,754.022217   C397.986481,753.948730 354.154327,753.796082 310.325653,754.097107   C292.985168,754.216187 279.745972,746.968628 269.518494,733.670349   C267.370178,730.877014 265.379730,729.949646 262.139008,729.955505   C225.141327,730.022034 188.143463,730.031067 151.145752,729.980530   C136.687546,729.960754 122.785088,727.427002 110.559738,719.181335   C91.342033,706.219666 79.849922,688.564575 79.060898,664.919983   C78.716476,654.598755 79.152565,644.252258 78.860214,633.927795   C78.807617,632.070496 77.393257,629.482971 75.825127,628.555298   C58.478374,618.293274 40.929016,608.373474 23.592087,598.095276   C21.865524,597.071655 20.164095,594.300110 20.156134,592.332886   C19.965252,545.169800 19.976698,498.005707 20.136295,450.842377   C20.141811,449.212311 21.665106,446.964813 23.131966,446.057343   C40.126644,435.543304 57.199730,425.153076 74.371368,414.930481   C78.045425,412.743256 79.703629,409.753082 79.953941,405.782196   C81.768578,376.994995 88.780930,349.343933 99.323822,322.673981   C110.255424,295.020691 124.807297,269.286743 144.075714,246.462341   C151.867889,237.232117 159.540039,227.790054 168.237030,219.456955   C186.896545,201.578186 207.375626,186.032043 230.046768,173.367706   C252.861099,160.623367 276.824921,150.756271 302.134247,144.648254   C317.152832,141.023758 332.649261,139.319305 347.976715,137.063461   C354.337097,136.127365 360.817322,136.005569 367.541351,135.490646   C371.705627,119.161972 378.229370,103.665718 387.893494,89.705864   C406.850555,62.322433 432.433746,43.856079 464.270264,34.042046   C480.471771,29.047703 496.991577,26.099524 513.983582,25.991470   C520.565796,25.949614 527.156677,25.952368 533.722107,25.567017   C535.326843,25.472828 537.102234,24.202599 538.366943,23.013426   C555.500305,6.903135 586.167664,7.831581 603.445984,25.155359   C611.928833,33.660545 616.659363,44.244541 617.079590,56.700912   C617.833069,79.035751 607.675293,94.210129 587.848633,103.615372   C573.223633,110.553070 549.815186,106.584839 537.989685,95.603226   C523.940979,82.557083 519.471008,66.769608 522.949646,48.296394   C523.125305,47.363476 523.085571,46.390003 523.146362,45.431889   C460.367584,42.905857 404.272400,77.110924 388.377441,135.452881   C393.268616,135.968094 398.104797,136.620422 402.962769,136.965729   C431.883392,139.021469 459.579803,146.184860 486.467773,156.787094   C512.183044,166.926910 535.922607,180.636398 557.733276,197.493301   C581.446960,215.821030 601.871643,237.387909 619.074524,262.033691   C636.153931,286.502625 649.385254,312.862213 658.484070,341.210876   C663.979736,358.333374 668.450012,375.774109 670.063660,393.806946   C670.533875,399.061340 671.204956,404.311951 672.137939,409.500671   C672.369873,410.790192 673.765320,412.180847 674.989441,412.934998   C692.988831,424.023926 711.083191,434.959381 729.033203,446.126953   C730.476624,447.024994 731.866394,449.354340 731.871826,451.023132   C732.023865,498.019836 731.976074,545.017090 732.037415,592.014221   C732.041321,595.020325 731.046814,596.840027 728.358154,598.368286   C710.835327,608.328064 693.367126,618.386963 676.027161,628.660217   C674.484314,629.574341 673.198608,632.221191 673.133728,634.109314   C672.830505,642.931702 673.192383,651.775452 672.956665,660.602051   C672.441101,679.909180 666.013489,696.948730 651.936462,710.424377   C640.799561,721.085754 627.588928,728.137451 611.851440,728.941772   C598.750488,729.611328 585.618347,729.668823 572.000000,729.997314  M471.155060,664.068604   C471.155060,653.829102 471.155060,643.589600 471.155060,633.197327   C406.608673,633.197327 342.894287,633.197327 278.706970,633.197327   C278.706970,643.985840 278.706970,654.587708 278.550110,666.089355   C278.533081,681.404053 278.567261,696.718994 278.473663,712.033203   C278.436615,718.095337 280.670410,723.011902 285.156250,726.999695   C292.244629,733.301147 300.788666,735.764709 309.990936,735.787476   C353.272186,735.894531 396.556946,736.094177 439.832184,735.572693   C446.812897,735.488586 454.115570,732.724854 460.606934,729.752869   C467.018402,726.817383 471.122101,721.060364 471.130615,713.427429   C471.148651,697.283325 471.054443,681.139038 471.155060,664.068604  M133.602936,709.055176   C138.368286,709.703430 143.131287,710.892883 147.899384,710.913818   C183.894196,711.071594 219.890015,711.002869 255.885529,710.990112   C257.480255,710.989502 259.074951,710.844421 260.844238,710.758179   C260.715790,708.499878 260.524200,706.693848 260.523407,704.887695   C260.506042,665.892578 260.235962,626.894897 260.604706,587.903259   C260.856720,561.259033 282.209747,539.425110 308.948181,539.095032   C352.933624,538.552063 396.935638,538.554871 440.921082,539.099792   C467.759949,539.432312 489.018890,561.787354 489.124451,588.573547   C489.276825,627.234802 489.163025,665.897034 489.162781,704.558899   C489.162781,706.634827 489.162781,708.710815 489.162781,711.000000   C491.328461,711.000000 492.981934,711.000000 494.635406,711.000000   C530.630920,711.000000 566.626465,711.007568 602.621948,710.997559   C632.150757,710.989441 653.995422,689.085632 653.997864,659.478638   C654.004211,582.654907 654.162781,505.830475 653.846130,429.008057   C653.790771,415.578308 652.575012,402.018677 650.432983,388.755188   C640.318787,326.129089 611.823792,273.057068 565.766113,229.502365   C557.264343,221.462662 547.944763,214.287766 539.002686,206.713699   C538.612427,206.999817 538.222229,207.285919 537.831970,207.572037   C537.831970,209.347916 537.831970,211.123810 537.831970,212.899704   C537.831970,246.062225 537.935242,279.225433 537.708862,312.386414   C537.678650,316.823608 539.084045,318.617462 543.110168,320.196442   C581.033020,335.069244 604.033875,374.879944 598.220276,415.120941   C592.074524,457.660461 556.315491,490.432343 514.351807,491.983276   C470.141663,493.617310 431.887512,464.185486 422.876709,421.260223   C421.291962,413.710938 421.003082,405.889587 420.125397,398.277832   C388.586029,398.277832 356.989319,398.277832 325.000000,398.277832   C325.000000,400.348358 325.001404,402.145691 324.999817,403.942993   C324.950958,458.327332 273.609070,500.785522 220.137421,490.661285   C180.434967,483.144073 149.572281,449.364746 147.040527,410.656403   C144.245438,367.922394 168.767410,331.073578 208.920547,318.022766   C212.624634,316.818848 213.615021,315.141937 213.596741,311.377014   C213.436691,278.381927 213.507492,245.385727 213.494339,212.389847   C213.493698,210.771866 213.348679,209.153946 213.240982,206.914169   C211.538300,208.019241 210.280869,208.709564 209.162674,209.579010   C136.621857,265.981750 98.532501,340.047302 97.359894,431.988892   C96.399384,507.300568 97.163727,582.634277 97.164551,657.958191   C97.164825,682.967773 109.346092,700.379272 133.602936,709.055176  M231.495407,206.541351   C231.495407,242.154816 231.495407,277.768280 231.495407,313.536499   C233.254700,313.666840 234.391907,313.849640 235.523666,313.820648   C272.199097,312.881622 308.827209,337.455658 320.905304,376.217957   C321.981567,379.672058 323.810181,379.884369 326.693329,379.877899   C357.020477,379.810028 387.347870,379.835968 417.675171,379.835999   C419.655243,379.835999 421.635284,379.835999 423.225128,379.835999   C439.641296,334.321991 471.577301,312.178864 519.530334,313.647858   C519.666260,312.763794 519.805298,312.280762 519.805542,311.797668   C519.822266,273.805298 519.882629,235.812607 519.671936,197.821426   C519.661560,195.949814 517.702698,193.369873 515.938232,192.332581   C474.469543,167.953857 429.552704,155.259277 381.539001,154.260040   C331.932007,153.227646 285.293610,164.872482 241.537354,188.455582   C234.107376,192.460083 229.499969,196.700394 231.495407,206.541351  M471.714996,462.816101   C495.554810,477.145416 520.176575,478.420929 544.412170,464.921600   C568.808228,451.333038 580.979065,429.694336 580.980896,401.599823   C580.983643,359.538696 541.591064,325.887726 500.040649,332.339630   C470.367004,336.947327 447.154053,358.336700 440.570953,387.137512   C433.965027,416.038208 445.880493,445.399567 471.714996,462.816101  M268.559692,466.102753   C296.803345,450.786194 311.373810,421.267059 305.960358,390.330627   C299.007263,350.595245 259.587769,324.427307 220.261246,333.440765   C180.641708,342.521393 156.493668,382.716034 167.294403,421.604553   C179.367737,465.075134 226.081253,485.894684 268.559692,466.102753  M469.296844,578.401428   C463.984894,564.637024 452.921051,557.005127 438.210815,557.002380   C395.745453,556.994507 353.280090,556.985535 310.814728,557.007141   C295.663910,557.014893 282.100037,566.685303 279.782318,581.476501   C278.087952,592.289734 279.450623,603.582031 279.450623,614.675903   C343.028229,614.675903 406.897522,614.675903 471.889374,614.675903   C471.111694,602.579102 470.358490,590.862610 469.296844,578.401428  M672.002502,517.500000   C672.002502,547.489319 672.002502,577.478638 672.002502,607.949524   C673.834595,607.407166 674.520691,607.335632 675.068726,607.022400   C686.918213,600.250549 698.825562,593.572693 710.498840,586.508484   C711.997498,585.601624 712.987671,582.662109 712.994995,580.659729   C713.138550,541.371155 713.062561,502.081848 713.168518,462.793030   C713.177979,459.306213 711.832214,457.339111 708.959045,455.647919   C698.774475,449.653168 688.707397,443.459106 678.580078,437.366821   C676.789734,436.289795 674.923645,435.338654 672.002502,433.728546   C672.002502,462.067993 672.002502,489.283997 672.002502,517.500000  M55.870857,448.367737   C51.467545,451.058838 47.135242,453.877014 42.633865,456.392639   C39.996674,457.866425 38.946289,459.722778 38.952660,462.778137   C39.034611,502.070679 39.033642,541.363525 38.956619,580.656067   C38.950645,583.701599 39.997036,585.521057 42.650402,587.014160   C53.095169,592.891663 63.421341,598.979675 73.821465,604.937317   C75.162964,605.705811 76.679947,606.167847 78.535057,606.948242   C78.535057,549.370178 78.535057,492.585938 78.535057,434.741547   C70.659195,439.478241 63.578365,443.736786 55.870857,448.367737  M576.069641,87.785980   C577.182068,87.446030 578.310181,87.150047 579.404480,86.759338   C590.906433,82.652725 598.905457,71.258224 598.793457,59.165241   C598.679993,46.904278 590.747559,35.881355 579.103577,31.804083   C567.654907,27.795214 554.751953,31.375866 547.066650,40.694534   C539.522522,49.841911 538.281860,63.003410 543.981140,73.426926   C549.984192,84.405991 561.186707,89.599068 576.069641,87.785980  z"/>
<path fill="#D9ECF6" opacity="1.000000" stroke="none" d=" M133.204407,708.982422   C109.346092,700.379272 97.164825,682.967773 97.164551,657.958191   C97.163727,582.634277 96.399384,507.300568 97.359894,431.988892   C98.532501,340.047302 136.621857,265.981750 209.162674,209.579010   C210.280869,208.709564 211.538300,208.019241 213.240982,206.914169   C213.348679,209.153946 213.493698,210.771866 213.494339,212.389847   C213.507492,245.385727 213.436691,278.381927 213.596741,311.377014   C213.615021,315.141937 212.624634,316.818848 208.920547,318.022766   C168.767410,331.073578 144.245438,367.922394 147.040527,410.656403   C149.572281,449.364746 180.434967,483.144073 220.137421,490.661285   C273.609070,500.785522 324.950958,458.327332 324.999817,403.942993   C325.001404,402.145691 325.000000,400.348358 325.000000,398.277832   C356.989319,398.277832 388.586029,398.277832 420.125397,398.277832   C421.003082,405.889587 421.291962,413.710938 422.876709,421.260223   C431.887512,464.185486 470.141663,493.617310 514.351807,491.983276   C556.315491,490.432343 592.074524,457.660461 598.220276,415.120941   C604.033875,374.879944 581.033020,335.069244 543.110168,320.196442   C539.084045,318.617462 537.678650,316.823608 537.708862,312.386414   C537.935242,279.225433 537.831970,246.062225 537.831970,212.899704   C537.831970,211.123810 537.831970,209.347916 537.831970,207.572037   C538.222229,207.285919 538.612427,206.999817 539.002686,206.713699   C547.944763,214.287766 557.264343,221.462662 565.766113,229.502365   C611.823792,273.057068 640.318787,326.129089 650.432983,388.755188   C652.575012,402.018677 653.790771,415.578308 653.846130,429.008057   C654.162781,505.830475 654.004211,582.654907 653.997864,659.478638   C653.995422,689.085632 632.150757,710.989441 602.621948,710.997559   C566.626465,711.007568 530.630920,711.000000 494.635406,711.000000   C492.981934,711.000000 491.328461,711.000000 489.162781,711.000000   C489.162781,708.710815 489.162781,706.634827 489.162781,704.558899   C489.163025,665.897034 489.276825,627.234802 489.124451,588.573547   C489.018890,561.787354 467.759949,539.432312 440.921082,539.099792   C396.935638,538.554871 352.933624,538.552063 308.948181,539.095032   C282.209747,539.425110 260.856720,561.259033 260.604706,587.903259   C260.235962,626.894897 260.506042,665.892578 260.523407,704.887695   C260.524200,706.693848 260.715790,708.499878 260.844238,710.758179   C259.074951,710.844421 257.480255,710.989502 255.885529,710.990112   C219.890015,711.002869 183.894196,711.071594 147.899384,710.913818   C143.131287,710.892883 138.368286,709.703430 133.204407,708.982422  z"/>
<path fill="#D9ECF5" opacity="1.000000" stroke="none" d=" M231.495438,206.050461   C229.499969,196.700394 234.107376,192.460083 241.537354,188.455582   C285.293610,164.872482 331.932007,153.227646 381.539001,154.260040   C429.552704,155.259277 474.469543,167.953857 515.938232,192.332581   C517.702698,193.369873 519.661560,195.949814 519.671936,197.821426   C519.882629,235.812607 519.822266,273.805298 519.805542,311.797668   C519.805298,312.280762 519.666260,312.763794 519.530334,313.647858   C471.577301,312.178864 439.641296,334.321991 423.225128,379.835999   C421.635284,379.835999 419.655243,379.835999 417.675171,379.835999   C387.347870,379.835968 357.020477,379.810028 326.693329,379.877899   C323.810181,379.884369 321.981567,379.672058 320.905304,376.217957   C308.827209,337.455658 272.199097,312.881622 235.523666,313.820648   C234.391907,313.849640 233.254700,313.666840 231.495407,313.536499   C231.495407,277.768280 231.495407,242.154816 231.495438,206.050461  z"/>
<path fill="#D9EDF6" opacity="1.000000" stroke="none" d=" M471.006287,664.994873   C471.054443,681.139038 471.148651,697.283325 471.130615,713.427429   C471.122101,721.060364 467.018402,726.817383 460.606934,729.752869   C454.115570,732.724854 446.812897,735.488586 439.832184,735.572693   C396.556946,736.094177 353.272186,735.894531 309.990936,735.787476   C300.788666,735.764709 292.244629,733.301147 285.156250,726.999695   C280.670410,723.011902 278.436615,718.095337 278.473663,712.033203   C278.567261,696.718994 278.533081,681.404053 279.044495,665.556396   C306.033661,664.965820 332.528412,664.860229 359.023193,664.862061   C396.350891,664.864624 433.678589,664.946777 471.006287,664.994873  z"/>
<path fill="#00A2AE" opacity="1.000000" stroke="none" d=" M471.416260,462.612183   C445.880493,445.399567 433.965027,416.038208 440.570953,387.137512   C447.154053,358.336700 470.367004,336.947327 500.040649,332.339630   C541.591064,325.887726 580.983643,359.538696 580.980896,401.599823   C580.979065,429.694336 568.808228,451.333038 544.412170,464.921600   C520.176575,478.420929 495.554810,477.145416 471.416260,462.612183  M546.570557,389.174438   C545.877991,387.662384 545.258789,386.111511 544.481812,384.644135   C534.439270,365.678040 511.136627,358.310577 492.126129,368.070984   C472.973297,377.904510 465.427216,401.468811 475.261475,420.734772   C484.422150,438.680969 506.132721,446.711304 524.737061,439.034851   C544.080200,431.053497 553.273132,410.620636 546.570557,389.174438  z"/>
<path fill="#00A2AE" opacity="1.000000" stroke="none" d=" M268.226135,466.271210   C226.081253,485.894684 179.367737,465.075134 167.294403,421.604553   C156.493668,382.716034 180.641708,342.521393 220.261246,333.440765   C259.587769,324.427307 299.007263,350.595245 305.960358,390.330627   C311.373810,421.267059 296.803345,450.786194 268.226135,466.271210  M249.910309,366.373444   C244.187271,365.573273 238.425217,363.882111 232.748108,364.130768   C210.944946,365.085754 194.690414,385.230560 197.112305,407.593201   C199.441666,429.101410 220.498093,445.087799 241.680710,441.430267   C259.690338,438.320587 272.354095,425.326416 274.759399,407.488434   C277.053314,390.476807 267.482758,374.287567 249.910309,366.373444  z"/>
<path fill="#FE8400" opacity="1.000000" stroke="none" d=" M469.451050,578.773804   C470.358490,590.862610 471.111694,602.579102 471.889374,614.675903   C406.897522,614.675903 343.028229,614.675903 279.450623,614.675903   C279.450623,603.582031 278.087952,592.289734 279.782318,581.476501   C282.100037,566.685303 295.663910,557.014893 310.814728,557.007141   C353.280090,556.985535 395.745453,556.994507 438.210815,557.002380   C452.921051,557.005127 463.984894,564.637024 469.451050,578.773804  z"/>
<path fill="#828282" opacity="1.000000" stroke="none" d=" M672.002502,517.000000   C672.002502,489.283997 672.002502,462.067993 672.002502,433.728546   C674.923645,435.338654 676.789734,436.289795 678.580078,437.366821   C688.707397,443.459106 698.774475,449.653168 708.959045,455.647919   C711.832214,457.339111 713.177979,459.306213 713.168518,462.793030   C713.062561,502.081848 713.138550,541.371155 712.994995,580.659729   C712.987671,582.662109 711.997498,585.601624 710.498840,586.508484   C698.825562,593.572693 686.918213,600.250549 675.068726,607.022400   C674.520691,607.335632 673.834595,607.407166 672.002502,607.949524   C672.002502,577.478638 672.002502,547.489319 672.002502,517.000000  z"/>
<path fill="#ACC3D6" opacity="1.000000" stroke="none" d=" M471.080688,664.531738   C433.678589,664.946777 396.350891,664.864624 359.023193,664.862061   C332.528412,664.860229 306.033661,664.965820 279.122925,665.106567   C278.706970,654.587708 278.706970,643.985840 278.706970,633.197327   C342.894287,633.197327 406.608673,633.197327 471.155060,633.197327   C471.155060,643.589600 471.155060,653.829102 471.080688,664.531738  z"/>
<path fill="#828282" opacity="1.000000" stroke="none" d=" M56.184196,448.181519   C63.578365,443.736786 70.659195,439.478241 78.535057,434.741547   C78.535057,492.585938 78.535057,549.370178 78.535057,606.948242   C76.679947,606.167847 75.162964,605.705811 73.821465,604.937317   C63.421341,598.979675 53.095169,592.891663 42.650402,587.014160   C39.997036,585.521057 38.950645,583.701599 38.956619,580.656067   C39.033642,541.363525 39.034611,502.070679 38.952660,462.778137   C38.946289,459.722778 39.996674,457.866425 42.633865,456.392639   C47.135242,453.877014 51.467545,451.058838 56.184196,448.181519  z"/>
<path fill="#EA7FE2" opacity="1.000000" stroke="none" d=" M575.669434,87.858429   C561.186707,89.599068 549.984192,84.405991 543.981140,73.426926   C538.281860,63.003410 539.522522,49.841911 547.066650,40.694534   C554.751953,31.375866 567.654907,27.795214 579.103577,31.804083   C590.747559,35.881355 598.679993,46.904278 598.793457,59.165241   C598.905457,71.258224 590.906433,82.652725 579.404480,86.759338   C578.310181,87.150047 577.182068,87.446030 575.669434,87.858429  z"/>
<path fill="#305969" opacity="1.000000" stroke="none" d=" M546.702393,389.547363   C553.273132,410.620636 544.080200,431.053497 524.737061,439.034851   C506.132721,446.711304 484.422150,438.680969 475.261475,420.734772   C465.427216,401.468811 472.973297,377.904510 492.126129,368.070984   C511.136627,358.310577 534.439270,365.678040 544.481812,384.644135   C545.258789,386.111511 545.877991,387.662384 546.702393,389.547363  M525.344543,416.803406   C532.763245,406.942902 532.543274,396.181580 524.761719,388.294830   C517.415833,380.849609 505.660645,379.985962 497.433472,386.286957   C488.105133,393.431366 486.512878,406.855072 493.906036,416.025269   C501.605804,425.575623 514.727356,426.131042 525.344543,416.803406  z"/>
<path fill="#305969" opacity="1.000000" stroke="none" d=" M250.270706,366.523499   C267.482758,374.287567 277.053314,390.476807 274.759399,407.488434   C272.354095,425.326416 259.690338,438.320587 241.680710,441.430267   C220.498093,445.087799 199.441666,429.101410 197.112305,407.593201   C194.690414,385.230560 210.944946,365.085754 232.748108,364.130768   C238.425217,363.882111 244.187271,365.573273 250.270706,366.523499  M216.864868,394.604950   C216.403214,396.198212 215.812881,397.766754 215.501266,399.388855   C213.740692,408.553802 218.786453,417.932770 227.496750,421.812012   C236.135086,425.659302 246.602280,423.066193 252.205521,415.690765   C259.694489,405.833221 257.482422,392.225525 247.295868,385.489319   C236.932358,378.636017 223.793274,382.303070 216.864868,394.604950  z"/>
<path fill="#01A2AE" opacity="1.000000" stroke="none" d=" M525.096863,417.069153   C514.727356,426.131042 501.605804,425.575623 493.906036,416.025269   C486.512878,406.855072 488.105133,393.431366 497.433472,386.286957   C505.660645,379.985962 517.415833,380.849609 524.761719,388.294830   C532.543274,396.181580 532.763245,406.942902 525.096863,417.069153  z"/>
<path fill="#01A2AE" opacity="1.000000" stroke="none" d=" M217.014862,394.251831   C223.793274,382.303070 236.932358,378.636017 247.295868,385.489319   C257.482422,392.225525 259.694489,405.833221 252.205521,415.690765   C246.602280,423.066193 236.135086,425.659302 227.496750,421.812012   C218.786453,417.932770 213.740692,408.553802 215.501266,399.388855   C215.812881,397.766754 216.403214,396.198212 217.014862,394.251831  z"/>
</svg>