<svg width="141" height="32" viewBox="0 0 141 32" xmlns="http://www.w3.org/2000/svg">
    <path d="M44.19 29c.957-.01 1.795-.217 2.515-.623a4.096 4.096 0 0 0 1.663-1.743c.388-.757.582-1.638.582-2.644v-.68c-.005-.982-.201-1.851-.59-2.608a4.16 4.16 0 0 0-1.651-1.75c-.713-.411-1.533-.616-2.461-.616h-3.01V29h2.952zm-.066-1.15h-1.48v-8.357h1.64c1.046.01 1.852.35 2.421 1.022.57.671.854 1.612.854 2.823v.623c0 1.245-.302 2.205-.905 2.878-.603.674-1.447 1.011-2.53 1.011zm9.89 1.296c.713 0 1.344-.17 1.893-.512.55-.342.972-.82 1.267-1.432.296-.613.443-1.305.443-2.077v-.095c0-1.24-.333-2.234-1-2.98-.666-.748-1.539-1.121-2.618-1.121-.698 0-1.32.168-1.864.505-.544.337-.97.816-1.274 1.436-.305.62-.458 1.318-.458 2.094v.096c0 1.23.333 2.219 1 2.966.666.747 1.537 1.12 2.61 1.12zm0-1.105c-.684 0-1.23-.267-1.637-.799-.408-.532-.612-1.238-.612-2.117 0-.99.205-1.752.615-2.285.41-.532.95-.798 1.62-.798.683 0 1.23.27 1.643.81.413.539.62 1.243.62 2.112 0 .972-.203 1.728-.609 2.267-.405.54-.952.81-1.64.81zm8.381 1.105c.537 0 1.046-.122 1.527-.366a3.087 3.087 0 0 0 1.154-.981c.288-.41.444-.843.469-1.297h-1.282c-.04.44-.24.806-.6 1.1-.362.292-.784.439-1.268.439-.698 0-1.235-.247-1.611-.74-.376-.493-.564-1.196-.564-2.11v-.256c0-.937.19-1.654.568-2.15.378-.495.911-.743 1.6-.743.513 0 .944.165 1.293.494.349.33.543.751.582 1.264h1.282c-.04-.85-.353-1.54-.942-2.073-.588-.532-1.326-.798-2.215-.798-.723 0-1.349.166-1.879.498-.53.332-.936.798-1.22 1.399-.282.6-.424 1.286-.424 2.058v.227c0 1.25.319 2.235.956 2.955.637.72 1.495 1.08 2.574 1.08zm7.144 0c1.02 0 1.794-.31 2.322-.93l.029.784h1.289v-7.925h-1.355v5.764c-.342.772-1.03 1.158-2.065 1.158-.977 0-1.465-.601-1.465-1.802v-5.12h-1.355v5.156c.005.962.228 1.689.67 2.18.442.49 1.085.735 1.93.735zM76.485 29v-5.786c.327-.757.935-1.135 1.823-1.135 1.128 0 1.692.576 1.692 1.728V29h1.363v-5.259c.053-.508.246-.912.578-1.212.332-.3.75-.45 1.253-.45.61 0 1.045.14 1.303.42.26.282.389.705.389 1.271V29h1.355v-5.31c-.03-1.84-.913-2.761-2.652-2.761-.576 0-1.075.117-1.498.351a3.002 3.002 0 0 0-1.029.923c-.4-.85-1.154-1.274-2.263-1.274-.986 0-1.77.341-2.35 1.025l-.037-.879H75.13V29h1.355zm14.988.146c1.328 0 2.324-.51 2.988-1.53l-.828-.645c-.249.323-.54.581-.871.777-.332.195-.738.293-1.216.293-.674 0-1.23-.241-1.666-.722-.437-.48-.666-1.112-.685-1.893h5.369v-.564c0-1.265-.286-2.236-.857-2.915-.572-.679-1.372-1.018-2.403-1.018-.63 0-1.214.174-1.754.523-.54.35-.96.833-1.26 1.45-.3.618-.45 1.32-.45 2.106v.25c0 1.181.337 2.125 1.01 2.83.674.706 1.548 1.058 2.623 1.058zm1.736-4.834h-3.97c.088-.717.317-1.275.688-1.673.371-.398.83-.597 1.377-.597.567 0 1.016.19 1.348.568.332.378.517.912.556 1.6v.102zM97.386 29v-5.647c.185-.38.444-.688.776-.923a1.955 1.955 0 0 1 1.157-.351c.542 0 .942.136 1.198.41.256.273.387.696.392 1.267V29h1.355v-5.237c-.015-1.89-.86-2.834-2.534-2.834-.977 0-1.768.38-2.374 1.142l-.043-.996H96.03V29h1.355zm9.136.146c.337 0 .683-.048 1.04-.146v-1.099a3.292 3.292 0 0 1-.645.088c-.317 0-.542-.08-.674-.238-.131-.159-.197-.396-.197-.714v-4.914h1.479v-1.048h-1.479v-1.919h-1.355v1.92h-1.443v1.047h1.443v4.914c0 .674.153 1.194.461 1.56.308.366.764.55 1.37.55zm4.931 0c.874 0 1.626-.327 2.256-.981.049.4.113.679.191.835h1.421v-.117c-.186-.43-.279-1.008-.279-1.736V23.5c-.019-.801-.288-1.43-.805-1.887-.518-.456-1.233-.684-2.146-.684-.577 0-1.105.107-1.586.322-.481.215-.862.507-1.143.875-.28.369-.421.751-.421 1.146h1.363c0-.346.163-.642.49-.886.327-.244.733-.366 1.216-.366.552 0 .969.14 1.252.421.284.28.425.658.425 1.132v.622h-1.318c-1.138 0-2.02.229-2.648.685-.627.457-.941 1.098-.941 1.923 0 .678.25 1.239.751 1.68.5.442 1.141.663 1.922.663zm.198-1.179c-.444 0-.808-.12-1.091-.359-.283-.239-.425-.57-.425-.996 0-.971.83-1.457 2.49-1.457h1.062v1.626a1.992 1.992 0 0 1-.827.857c-.381.22-.784.33-1.209.33zm7.73 1.18c.337 0 .683-.05 1.04-.147v-1.099a3.282 3.282 0 0 1-.645.088c-.317 0-.542-.08-.674-.238-.131-.159-.197-.396-.197-.714v-4.914h1.479v-1.048h-1.479v-1.919h-1.355v1.92h-1.443v1.047h1.443v4.914c0 .674.154 1.194.461 1.56.308.366.764.55 1.37.55zm3.291-9.405c.264 0 .464-.073.6-.22a.774.774 0 0 0 .206-.549.8.8 0 0 0-.206-.556c-.136-.152-.336-.228-.6-.228-.264 0-.463.076-.597.227a.81.81 0 0 0-.201.557c0 .22.067.403.201.55.134.146.333.22.597.22zm.666 9.258v-7.925h-1.355V29h1.355zm5.32.146c.713 0 1.344-.17 1.894-.512a3.37 3.37 0 0 0 1.267-1.432c.295-.613.443-1.305.443-2.077v-.095c0-1.24-.333-2.234-1-2.98-.666-.748-1.539-1.121-2.618-1.121-.699 0-1.32.168-1.864.505-.545.337-.97.816-1.275 1.436-.305.62-.458 1.318-.458 2.094v.096c0 1.23.334 2.219 1 2.966.667.747 1.537 1.12 2.611 1.12zm0-1.105c-.683 0-1.229-.267-1.637-.799-.407-.532-.611-1.238-.611-2.117 0-.99.205-1.752.615-2.285.41-.532.95-.798 1.619-.798.683 0 1.231.27 1.644.81.413.539.619 1.243.619 2.112 0 .972-.203 1.728-.608 2.267-.405.54-.952.81-1.641.81zm6.558.959v-5.647c.186-.38.444-.688.776-.923a1.957 1.957 0 0 1 1.158-.351c.542 0 .941.136 1.197.41.256.273.387.696.392 1.267V29h1.355v-5.237c-.015-1.89-.859-2.834-2.534-2.834-.977 0-1.768.38-2.373 1.142l-.044-.996h-1.282V29h1.355zM92.53 3.222h8.436V5.22h-7.043a6.382 6.382 0 0 0-1.394-1.998zm7.288 5.793V7.037h-5.4c.048.338.078.683.078 1.042 0 .321-.023.632-.061.936h5.383zm-7.183 3.873h8.372V10.89h-7.05a6.199 6.199 0 0 1-1.322 1.998zM68.743 8.072c0 2.825-2.139 5.038-5.103 5.038-2.965 0-5.103-2.213-5.103-5.038 0-2.842 2.138-5.069 5.103-5.069 2.964 0 5.103 2.224 5.103 5.07zm-2.323 0c0-1.762-1.154-3.043-2.78-3.043s-2.78 1.28-2.78 3.043c0 1.746 1.154 3.013 2.78 3.013s2.78-1.267 2.78-3.013zm25.197-.017c0 2.89-2.131 4.833-5.304 4.833h-3.874V3.222h3.778c3.177 0 5.4 1.944 5.4 4.833zm-2.323 0c0-1.745-1.26-2.9-3.138-2.9H84.68v5.803h1.475c1.88 0 3.14-1.157 3.14-2.903zm-44.123 3.013c-1.653 0-2.852-1.305-2.852-3.013s1.2-3.009 2.852-3.009c.796 0 1.452.283 2.03.827l1.444-1.445C47.774 3.529 46.558 3 45.151 3 42.24 3 40 5.22 40 8.055c0 2.835 2.24 5.055 5.15 5.055 1.47 0 2.757-.594 3.635-1.591l-1.435-1.435c-.587.639-1.277.984-2.179.984zm8.01-7.846h-2.237v9.666h6.773v-1.967H53.18V3.222zm56.293 6.415 2.756 3.251h-2.606l-2.568-3.053h-1.233v3.053h-2.193V3.222h4.457c1.244 0 2.156.304 2.811.86.656.56 1.035 1.418 1.035 2.443 0 1.28-.543 2.613-2.459 3.112zm.222-3.078c0-.427-.171-.826-.43-1.055-.294-.257-.714-.393-1.302-.393h-2.141v2.903h2.148c.574 0 .984-.13 1.274-.379.273-.236.451-.639.451-1.076zm13.28 6.33h-2.264l-.783-1.975h-4.116l-.782 1.974h-2.264l4.081-9.666h2.005l4.123 9.666zm-3.761-3.765-1.345-3.388-1.346 3.388h2.691zM77.412 8.63c0 1.53-.882 2.456-2.115 2.456-1.236 0-2.114-.922-2.114-2.456V3.225h-2.237v5.319c0 2.8 1.759 4.566 4.355 4.566 2.596 0 4.355-1.769 4.355-4.566V3.225h-2.238V8.63h-.007z" fill="#fff"/>
    <path d="M29.333 0a2.667 2.667 0 0 1 2.662 2.498l.005.169v26.666a2.667 2.667 0 0 1-2.498 2.662l-.169.005H2.667a2.667 2.667 0 0 1-2.662-2.498L0 29.333V2.667A2.667 2.667 0 0 1 2.498.005L2.667 0h26.666zm0 2.667H2.667v26.666h26.666V2.667zM17.211 21.053a1.316 1.316 0 1 1 0 2.631H6.788a1.316 1.316 0 0 1 0-2.631H17.21zm8-6.316a1.316 1.316 0 1 1 0 2.631H6.788a1.316 1.316 0 0 1 0-2.631h18.422zm0-6.316a1.316 1.316 0 1 1 0 2.632H6.788a1.316 1.316 0 1 1 0-2.632h18.422z" fill="#FF8400"/>
</svg>
